<svg width="120" height="120" viewBox="0 0 120 120" fill="none" xmlns="http://www.w3.org/2000/svg">
<g clip-path="url(#clip0_209_1443)">
<path d="M60 5C49.122 5 38.4884 8.22569 29.4437 14.2692C20.399 20.3126 13.3495 28.9025 9.18665 38.9524C5.02383 49.0023 3.93465 60.061 6.05683 70.73C8.17902 81.3989 13.4173 91.199 21.1091 98.8909C28.801 106.583 38.6011 111.821 49.27 113.943C59.939 116.065 70.9977 114.976 81.0476 110.813C91.0975 106.651 99.6874 99.601 105.731 90.5563C111.774 81.5116 115 70.878 115 60C114.99 45.4162 109.192 31.4327 98.8796 21.1204C88.5673 10.8081 74.5838 5.01022 60 5ZM60 107.286C50.6477 107.286 41.5054 104.513 33.7293 99.317C25.9531 94.1211 19.8923 86.736 16.3133 78.0956C12.7344 69.4552 11.798 59.9475 13.6225 50.7749C15.447 41.6023 19.9506 33.1767 26.5637 26.5637C33.1768 19.9506 41.6023 15.447 50.7749 13.6225C59.9476 11.7979 69.4552 12.7344 78.0956 16.3133C86.736 19.8923 94.1211 25.9531 99.317 33.7292C104.513 41.5054 107.286 50.6477 107.286 60C107.276 72.5379 102.291 84.5594 93.4251 93.425C84.5594 102.291 72.5379 107.276 60 107.286Z" fill="url(#paint0_linear_209_1443)"/>
<path d="M78.0895 41.9111C77.7309 41.5496 77.3044 41.2627 76.8344 41.0669C76.3644 40.8711 75.8602 40.7703 75.3511 40.7703C74.8419 40.7703 74.3378 40.8711 73.8678 41.0669C73.3978 41.2627 72.9712 41.5496 72.6126 41.9111L60.0004 54.5619L47.3882 41.9111C47.0286 41.5515 46.6017 41.2663 46.1318 41.0716C45.662 40.877 45.1584 40.7768 44.6498 40.7768C44.1412 40.7768 43.6376 40.877 43.1678 41.0716C42.6979 41.2663 42.271 41.5515 41.9114 41.9111C41.5518 42.2708 41.2665 42.6977 41.0719 43.1675C40.8773 43.6374 40.7771 44.141 40.7771 44.6496C40.7771 45.1581 40.8773 45.6617 41.0719 46.1316C41.2665 46.6015 41.5518 47.0284 41.9114 47.388L54.5622 60.0002L41.9114 72.6124C41.5499 72.971 41.2629 73.3975 41.0671 73.8675C40.8713 74.3375 40.7705 74.8417 40.7705 75.3508C40.7705 75.86 40.8713 76.3641 41.0671 76.8341C41.2629 77.3041 41.5499 77.7307 41.9114 78.0893C42.2718 78.4467 42.6992 78.7295 43.1691 78.9215C43.639 79.1134 44.1422 79.2107 44.6498 79.2078C45.1574 79.2107 45.6606 79.1134 46.1305 78.9215C46.6004 78.7295 47.0278 78.4467 47.3882 78.0893L60.0004 65.4385L72.5741 78.0893C72.9326 78.4508 73.3592 78.7377 73.8292 78.9335C74.2992 79.1293 74.8033 79.2301 75.3125 79.2301C75.8217 79.2301 76.3258 79.1293 76.7958 78.9335C77.2658 78.7377 77.6924 78.4508 78.0509 78.0893C78.4124 77.7307 78.6994 77.3041 78.8952 76.8341C79.091 76.3641 79.1918 75.86 79.1918 75.3508C79.1918 74.8417 79.091 74.3375 78.8952 73.8675C78.6994 73.3975 78.4124 72.971 78.0509 72.6124L65.4002 60.0002L78.0509 47.388C78.415 47.032 78.7049 46.6074 78.9041 46.1388C79.1032 45.6702 79.2075 45.1668 79.2111 44.6576C79.2147 44.1484 79.1175 43.6436 78.9249 43.1722C78.7324 42.7008 78.4485 42.2722 78.0895 41.9111Z" fill="url(#paint1_linear_209_1443)"/>
</g>
<defs>
<linearGradient id="paint0_linear_209_1443" x1="5.00002" y1="60" x2="115" y2="60" gradientUnits="userSpaceOnUse">
<stop stop-color="#480FEB"/>
<stop offset="1" stop-color="#B82FFF"/>
</linearGradient>
<linearGradient id="paint1_linear_209_1443" x1="40.7929" y1="60.0002" x2="79.208" y2="60.0002" gradientUnits="userSpaceOnUse">
<stop stop-color="#480FEB"/>
<stop offset="1" stop-color="#B82FFF"/>
</linearGradient>
<clipPath id="clip0_209_1443">
<rect width="120" height="120" fill="white"/>
</clipPath>
</defs>
</svg>
