<svg width="120" height="120" viewBox="0 0 120 120" fill="none" xmlns="http://www.w3.org/2000/svg">
<g clip-path="url(#clip0_1207_1158)">
<path d="M60 5C49.122 5 38.4884 8.22569 29.4437 14.2692C20.399 20.3126 13.3495 28.9025 9.18665 38.9524C5.02383 49.0023 3.93465 60.061 6.05683 70.73C8.17902 81.3989 13.4173 91.199 21.1091 98.8909C28.801 106.583 38.6011 111.821 49.27 113.943C59.939 116.065 70.9977 114.976 81.0476 110.813C91.0975 106.651 99.6874 99.601 105.731 90.5563C111.774 81.5116 115 70.878 115 60C114.99 45.4162 109.192 31.4327 98.8796 21.1204C88.5673 10.8081 74.5838 5.01022 60 5V5ZM60 107.286C50.6477 107.286 41.5054 104.513 33.7293 99.317C25.9531 94.1211 19.8923 86.736 16.3133 78.0956C12.7344 69.4552 11.798 59.9475 13.6225 50.7749C15.447 41.6023 19.9506 33.1767 26.5637 26.5637C33.1768 19.9506 41.6023 15.447 50.7749 13.6225C59.9476 11.7979 69.4552 12.7344 78.0956 16.3133C86.736 19.8923 94.1211 25.9531 99.317 33.7292C104.513 41.5054 107.286 50.6477 107.286 60C107.276 72.5379 102.291 84.5594 93.4251 93.425C84.5594 102.291 72.5379 107.276 60 107.286V107.286Z" fill="url(#paint0_linear_1207_1158)"/>
<path d="M78.0924 41.9109C77.7339 41.5494 77.3073 41.2625 76.8373 41.0666C76.3673 40.8708 75.8632 40.77 75.354 40.77C74.8448 40.77 74.3407 40.8708 73.8707 41.0666C73.4007 41.2625 72.9741 41.5494 72.6156 41.9109L60.0034 54.5617L47.3912 41.9109C47.0316 41.5513 46.6046 41.266 46.1348 41.0714C45.6649 40.8768 45.1613 40.7766 44.6527 40.7766C44.1442 40.7766 43.6406 40.8768 43.1707 41.0714C42.7009 41.266 42.2739 41.5513 41.9143 41.9109C41.5547 42.2705 41.2694 42.6974 41.0748 43.1673C40.8802 43.6372 40.78 44.1408 40.78 44.6493C40.78 45.1579 40.8802 45.6615 41.0748 46.1314C41.2694 46.6012 41.5547 47.0281 41.9143 47.3878L54.5651 60L41.9143 72.6122C41.5528 72.9707 41.2659 73.3973 41.0701 73.8673C40.8743 74.3373 40.7734 74.8414 40.7734 75.3506C40.7734 75.8597 40.8743 76.3639 41.0701 76.8339C41.2659 77.3039 41.5528 77.7305 41.9143 78.089C42.2747 78.4465 42.7021 78.7293 43.172 78.9212C43.642 79.1132 44.1451 79.2105 44.6527 79.2075C45.1603 79.2105 45.6635 79.1132 46.1334 78.9212C46.6034 78.7293 47.0308 78.4465 47.3912 78.089L60.0034 65.4382L72.577 78.089C72.9356 78.4505 73.3621 78.7375 73.8321 78.9333C74.3022 79.1291 74.8063 79.2299 75.3154 79.2299C75.8246 79.2299 76.3287 79.1291 76.7987 78.9333C77.2687 78.7375 77.6953 78.4505 78.0539 78.089C78.4154 77.7305 78.7023 77.3039 78.8981 76.8339C79.0939 76.3639 79.1947 75.8597 79.1947 75.3506C79.1947 74.8414 79.0939 74.3373 78.8981 73.8673C78.7023 73.3973 78.4154 72.9707 78.0539 72.6122L65.4031 60L78.0539 47.3878C78.4179 47.0318 78.7079 46.6072 78.907 46.1386C79.1061 45.6699 79.2105 45.1665 79.2141 44.6574C79.2176 44.1482 79.1204 43.6434 78.9279 43.172C78.7354 42.7006 78.4514 42.272 78.0924 41.9109V41.9109Z" fill="url(#paint1_linear_1207_1158)"/>
</g>
<defs>
<linearGradient id="paint0_linear_1207_1158" x1="5.00002" y1="60" x2="115" y2="60" gradientUnits="userSpaceOnUse">
<stop stop-color="#480FEB"/>
<stop offset="1" stop-color="#B82FFF"/>
</linearGradient>
<linearGradient id="paint1_linear_1207_1158" x1="40.7958" y1="60" x2="79.2109" y2="60" gradientUnits="userSpaceOnUse">
<stop stop-color="#480FEB"/>
<stop offset="1" stop-color="#B82FFF"/>
</linearGradient>
<clipPath id="clip0_1207_1158">
<rect width="120" height="120" fill="white"/>
</clipPath>
</defs>
</svg>
