<svg width="32" height="32" viewBox="0 0 32 32" fill="none" xmlns="http://www.w3.org/2000/svg">
<circle cx="16" cy="16" r="16" fill="white"/>
<path d="M17.0275 16.0028L21.6094 11.4283C21.7463 11.2913 21.8232 11.1056 21.8232 10.9119C21.8232 10.7182 21.7463 10.5325 21.6094 10.3955C21.4724 10.2586 21.2867 10.1816 21.093 10.1816C20.8993 10.1816 20.7136 10.2586 20.5766 10.3955L16.0021 14.9773L11.4275 10.3955C11.2906 10.2586 11.1049 10.1816 10.9112 10.1816C10.7175 10.1816 10.5318 10.2586 10.3948 10.3955C10.2579 10.5325 10.1809 10.7182 10.1809 10.9119C10.1809 11.1056 10.2579 11.2913 10.3948 11.4283L14.9766 16.0028L10.3948 20.5773C10.3266 20.645 10.2725 20.7254 10.2356 20.814C10.1987 20.9026 10.1797 20.9977 10.1797 21.0937C10.1797 21.1897 10.1987 21.2848 10.2356 21.3734C10.2725 21.462 10.3266 21.5425 10.3948 21.6101C10.4624 21.6782 10.5429 21.7323 10.6315 21.7693C10.7201 21.8062 10.8152 21.8252 10.9112 21.8252C11.0072 21.8252 11.1022 21.8062 11.1909 21.7693C11.2795 21.7323 11.3599 21.6782 11.4275 21.6101L16.0021 17.0283L20.5766 21.6101C20.6442 21.6782 20.7247 21.7323 20.8133 21.7693C20.9019 21.8062 20.997 21.8252 21.093 21.8252C21.189 21.8252 21.2841 21.8062 21.3727 21.7693C21.4613 21.7323 21.5417 21.6782 21.6094 21.6101C21.6775 21.5425 21.7316 21.462 21.7686 21.3734C21.8055 21.2848 21.8245 21.1897 21.8245 21.0937C21.8245 20.9977 21.8055 20.9026 21.7686 20.814C21.7316 20.7254 21.6775 20.645 21.6094 20.5773L17.0275 16.0028Z" fill="black"/>
</svg>
