<svg width="24" height="24" viewBox="0 0 24 24" fill="none" xmlns="http://www.w3.org/2000/svg">
<path d="M21.92 12.3802C22.02 12.1367 22.02 11.8636 21.92 11.6202C21.8724 11.4974 21.801 11.3853 21.71 11.2902L14.71 4.29019C14.6168 4.19695 14.5061 4.12299 14.3842 4.07253C14.2624 4.02207 14.1319 3.99609 14 3.99609C13.7337 3.99609 13.4783 4.10188 13.29 4.29019C13.1968 4.38342 13.1228 4.49411 13.0723 4.61594C13.0219 4.73776 12.9959 4.86833 12.9959 5.00019C12.9959 5.26649 13.1017 5.52188 13.29 5.71019L18.59 11.0002H3C2.73478 11.0002 2.48043 11.1055 2.29289 11.2931C2.10536 11.4806 2 11.735 2 12.0002C2 12.2654 2.10536 12.5198 2.29289 12.7073C2.48043 12.8948 2.73478 13.0002 3 13.0002H18.59L13.29 18.2902C13.1963 18.3831 13.1219 18.4937 13.0711 18.6156C13.0203 18.7375 12.9942 18.8682 12.9942 19.0002C12.9942 19.1322 13.0203 19.2629 13.0711 19.3848C13.1219 19.5066 13.1963 19.6172 13.29 19.7102C13.383 19.8039 13.4936 19.8783 13.6154 19.9291C13.7373 19.9798 13.868 20.006 14 20.006C14.132 20.006 14.2627 19.9798 14.3846 19.9291C14.5064 19.8783 14.617 19.8039 14.71 19.7102L21.71 12.7102C21.801 12.6151 21.8724 12.5029 21.92 12.3802Z" fill="white"/>
</svg>
