<svg width="169" height="50" viewBox="0 0 169 50" fill="none" xmlns="http://www.w3.org/2000/svg">
<path d="M25.37 48.1249C25.2532 48.1249 25.1364 48.1249 25.0197 48.1249C21.9925 48.1217 18.995 47.5256 16.1954 46.3702C13.4138 45.2274 10.8851 43.543 8.75546 41.4146C8.71412 41.3849 8.67913 41.3475 8.65244 41.304C8.62581 41.261 8.60798 41.2124 8.6 41.1625C8.61371 41.0542 8.66959 40.9557 8.75546 40.8887C8.87526 40.7712 11.9849 37.4754 15.5843 33.6594L15.6001 33.6422L15.6252 33.6145C19.9859 28.9895 24.9288 23.7526 25.1514 23.5345C25.199 23.4806 25.2645 23.4458 25.3358 23.4367C25.3886 23.4367 25.4199 23.4724 25.4199 23.5345C25.5375 23.6772 41.3289 40.7014 41.8175 41.0182C41.8898 41.0899 41.9189 41.1505 41.9004 41.2046C41.882 41.2587 41.8041 41.2827 41.6828 41.2827C40.7881 42.2174 39.797 43.0551 38.7262 43.7803C35.3312 46.2186 31.3341 47.6759 27.1702 47.9927C26.5746 48.0824 25.9726 48.1264 25.37 48.1249ZM101.495 42.5976H97.9964C97.7332 42.5976 97.7332 42.4654 97.7332 42.3331V16.1689C97.7332 15.9046 97.8642 15.9046 97.9964 15.9046H101.759C102.022 15.9046 102.022 16.0367 102.022 16.1689V19.1989C102.883 17.8006 104.149 16.6994 105.651 16.0434C106.873 15.5434 108.186 15.3059 109.505 15.3464C110.824 15.387 112.12 15.7045 113.309 16.2786C114.489 16.8392 115.532 17.6491 116.371 18.6527C117.208 19.6562 117.82 20.8299 118.163 22.0929C119.048 24.9777 118.758 28.0969 117.357 30.7678C116.717 32.0429 115.765 33.1335 114.591 33.9382C113.415 34.7426 112.056 35.2346 110.64 35.3678C110.142 35.4548 109.639 35.4992 109.133 35.5001C107.99 35.4996 106.859 35.2753 105.802 34.8392C104.443 34.3217 103.24 33.4614 102.308 32.3417C102.253 32.2844 102.208 32.2177 102.176 32.1451C102.145 32.0721 102.1 32.0055 102.045 31.9481V42.0704C102.029 42.5976 102.029 42.5976 101.492 42.5976H101.495ZM108.022 18.7522C106.6 18.7461 105.228 19.2784 104.18 20.2429C103.467 20.8289 102.902 21.574 102.528 22.4186C102.155 23.2632 101.983 24.1839 102.028 25.1068C102.155 25.536 102.244 25.9754 102.291 26.4203C102.484 27.8633 103.187 29.1889 104.273 30.1541C105.359 31.1193 106.755 31.6604 108.206 31.6785H108.285C109.473 31.6896 110.637 31.345 111.629 30.6897C112.621 30.0338 113.396 29.0964 113.855 27.997C114.409 26.6641 114.502 25.1831 114.118 23.7909C113.935 22.7459 113.476 21.769 112.792 20.9605C112.106 20.1521 111.22 19.5413 110.221 19.191C109.523 18.8968 108.774 18.7458 108.016 18.747L108.022 18.7522ZM85.3681 35.8197C82.7103 35.8179 80.1217 34.9687 77.9758 33.3948C77.929 33.3749 77.8866 33.3453 77.8511 33.3079C77.8162 33.2709 77.7893 33.2264 77.7719 33.1784C77.7538 33.1039 77.7507 33.0267 77.7632 32.9513C77.7744 32.8759 77.8018 32.8033 77.8411 32.7381C78.1255 32.2941 78.3706 31.826 78.5739 31.339C78.756 30.9181 78.9593 30.5079 79.185 30.1087C79.7095 30.2757 80.2215 30.482 80.7147 30.7257C81.266 30.9912 81.8322 31.2247 82.4103 31.4246C83.7704 31.9856 85.2553 32.1678 86.7102 31.9532C87.1779 31.9014 87.6325 31.7673 88.0534 31.5569C88.3285 31.4306 88.5698 31.2396 88.7556 31C88.9415 30.7609 89.0674 30.4797 89.1223 30.1814C89.1747 29.8844 89.1541 29.5797 89.0618 29.2924C88.9702 29.0057 88.8099 28.7453 88.5954 28.5349C88.1813 28.1436 87.6712 27.8702 87.1174 27.7421C86.4115 27.448 85.6887 27.1969 84.9534 26.9887C84.487 26.8472 84.0486 26.714 83.6233 26.5581L81.6084 25.7649C80.7147 25.3265 79.9651 24.6389 79.4507 23.7847C78.9355 22.9306 78.6768 21.9458 78.7048 20.948C78.7322 19.9502 79.0459 18.9815 79.6072 18.1575C80.1684 17.3334 80.9548 16.689 81.8715 16.301C83.226 15.7686 84.6685 15.4961 86.1227 15.4976C86.3179 15.4976 86.5181 15.4976 86.7089 15.5121C88.7188 15.6485 90.6807 16.1867 92.4805 17.0952C92.8123 17.2274 92.9781 17.2895 93.0162 17.4005C93.0548 17.5115 92.9532 17.6819 92.753 18.0149L91.5438 20.3816C91.5176 20.4077 91.4927 20.4356 91.4702 20.4649C91.4228 20.5243 91.3885 20.5666 91.3175 20.5666C91.2557 20.5616 91.1952 20.5431 91.141 20.5124C89.5352 19.5963 87.7435 19.0568 85.9001 18.9346C85.216 18.8261 84.5163 18.9179 83.8827 19.1989C83.5628 19.2951 83.2778 19.4831 83.0633 19.7397C82.8481 19.9964 82.7128 20.3104 82.6735 20.6432C82.5906 20.9776 82.6255 21.3305 82.7727 21.6419C82.9192 21.9534 83.1693 22.2042 83.4798 22.3519C84.3585 22.8822 85.3095 23.2827 86.3023 23.5411C87.4598 23.8201 88.586 24.2187 89.6618 24.7304C90.3446 25.0305 90.9782 25.4311 91.5426 25.9199C92.2061 26.4689 92.7156 27.1816 93.0212 27.9882C93.328 28.7943 93.4203 29.6666 93.2893 30.5194C93.1983 31.5781 92.7904 32.5841 92.1194 33.4059C91.4478 34.2273 90.5442 34.8258 89.5277 35.1222C88.1906 35.5889 86.7838 35.8248 85.3681 35.8197ZM63.4487 35.4617C62.3916 35.4631 61.3445 35.2522 60.3691 34.842C59.5786 34.5474 58.8581 34.0895 58.2551 33.4975C57.6517 32.9055 57.1797 32.1932 56.8686 31.4061C56.5643 30.6263 56.4315 29.7901 56.4786 28.9539C56.526 28.1182 56.7524 27.3023 57.1423 26.5619C57.542 25.863 58.0836 25.2562 58.7318 24.7807C59.3799 24.3051 60.1207 23.9715 60.9052 23.8014C61.9153 23.5411 62.9535 23.4079 63.9962 23.405H69.774C69.9349 23.405 70.0578 23.3561 70.0889 23.2821C70.0958 23.2568 70.0958 23.23 70.0871 23.205C70.0789 23.1801 70.064 23.1582 70.0428 23.1421C70.0733 22.6567 70.0291 22.1695 69.9112 21.6977C69.7285 21.0299 69.3481 20.4334 68.8199 19.9874C68.2923 19.5414 67.6419 19.2669 66.9546 19.2002C65.0507 18.824 63.0776 19.0551 61.3109 19.861C60.6844 20.1334 60.0972 20.4889 59.5648 20.9181C59.5224 20.9676 59.462 20.9984 59.3974 21.004C59.3131 21.004 59.2366 20.9326 59.1614 20.7873C58.6198 19.9844 58.1261 19.15 57.6826 18.2885C57.6116 18.2184 57.5812 18.1563 57.5996 18.1047C57.6181 18.0532 57.6956 18.0268 57.8168 18.0268C60.3424 16.4365 63.2647 15.595 66.2462 15.5994C66.7058 15.5994 67.1679 15.6192 67.63 15.6601C68.659 15.7195 69.6649 15.9893 70.5853 16.453C71.5925 16.9156 72.4655 17.6274 73.1228 18.5215C73.7801 19.4156 74.1998 20.4626 74.3432 21.5642C74.4567 22.8321 74.501 24.1052 74.4748 25.3779V35.1061C74.4748 35.3706 74.3432 35.3706 74.2117 35.3706H70.5791C70.3159 35.3706 70.3159 35.2383 70.3159 35.1061V33.0026C68.6914 34.3041 66.7364 35.1227 64.6722 35.3664C64.2662 35.4294 63.8553 35.4608 63.4449 35.4603L63.4487 35.4617ZM64.4022 26.5604C63.5366 26.5729 62.6773 26.7066 61.8484 26.9568C61.4888 27.0724 61.1643 27.2778 60.9057 27.5539C60.6471 27.8296 60.4627 28.1676 60.3706 28.5349C60.2239 29.2721 60.3654 30.038 60.7656 30.6739C61.1652 31.3099 61.7935 31.7673 62.5201 31.9518C63.3214 32.1932 64.1621 32.2709 64.9934 32.1803C65.8253 32.0892 66.6297 31.8321 67.36 31.4236C68.1239 31.1411 68.7737 30.6152 69.2109 29.9261C69.6474 29.2369 69.847 28.4234 69.7784 27.6099C69.8694 27.3555 69.9137 27.0868 69.9106 26.8171C69.9106 26.5526 69.7784 26.5526 69.6468 26.5526L64.4022 26.5604ZM157.071 35.4141C155.674 35.415 154.286 35.1754 152.97 34.706C151.422 34.1949 150.047 33.2588 149.002 32.0041C147.957 30.7489 147.283 29.2254 147.058 27.6057C146.599 25.5286 146.836 23.3574 147.729 21.4281C148.363 19.9597 149.365 18.6802 150.636 17.7134C151.906 16.7464 153.405 16.1249 154.985 15.9086C156.68 15.6212 158.414 15.6661 160.091 16.0407C161.462 16.3033 162.731 16.9481 163.754 17.9012C164.776 18.8542 165.51 20.0771 165.872 21.4295C166.45 23.2539 166.633 25.1813 166.409 27.0826C166.409 27.3467 166.277 27.3467 166.146 27.3467H158.888C156.884 27.0734 154.865 26.936 152.843 26.936C152.449 26.936 152.033 26.936 151.632 26.9517C151.577 26.9439 151.521 26.9504 151.469 26.9702C151.417 26.9901 151.371 27.0229 151.336 27.0655C151.316 27.1104 151.307 27.1599 151.312 27.2089C151.317 27.2584 151.335 27.3051 151.363 27.3453C151.71 28.6741 152.488 29.8484 153.576 30.6818C154.664 31.5157 155.998 31.9606 157.366 31.9467H157.411C157.499 31.9467 157.583 31.9467 157.663 31.9467C159.622 31.9551 161.507 31.1993 162.922 29.8391C162.946 29.8091 162.977 29.785 163.012 29.7684C163.046 29.7517 163.084 29.7429 163.123 29.7424C163.162 29.7424 163.2 29.7508 163.235 29.7674C163.27 29.7841 163.301 29.8086 163.325 29.8391C163.659 30.1666 163.966 30.4996 164.264 30.8224C164.561 31.1447 164.87 31.4829 165.208 31.8107C165.238 31.8334 165.263 31.8635 165.28 31.8972C165.298 31.9315 165.306 31.9694 165.307 32.0073C165.306 32.0457 165.297 32.0836 165.28 32.1179C165.263 32.1526 165.238 32.1821 165.208 32.2057C163.696 33.6219 161.843 34.6186 159.83 35.0968C158.925 35.3086 157.998 35.4164 157.067 35.4182L157.071 35.4141ZM156.911 18.8369C155.723 18.8321 154.565 19.2019 153.598 19.894C152.986 20.3327 152.471 20.8938 152.086 21.542C151.7 22.1901 151.453 22.9112 151.359 23.6601C151.306 23.7605 151.293 23.8252 151.317 23.8636C151.341 23.9019 151.467 23.9217 151.628 23.9217H162.379C162.642 23.9217 162.642 23.7896 162.642 23.6574C162.553 22.675 162.231 21.7284 161.702 20.897C161.253 20.3165 160.684 19.8405 160.034 19.5018C159.385 19.163 158.669 18.9696 157.938 18.9346C157.597 18.8723 157.252 18.8409 156.906 18.8408L156.911 18.8369ZM127.203 35.2383H127.161H123.532C123.269 35.2383 123.269 35.2383 123.269 34.9742V16.0434C123.269 15.7791 123.401 15.7791 123.532 15.7791H127.161C127.424 15.7791 127.424 15.9112 127.424 16.0434L127.556 34.842C127.563 34.8956 127.556 34.9497 127.539 35.0006C127.521 35.0515 127.492 35.0977 127.454 35.1352C127.386 35.2004 127.297 35.2374 127.203 35.2383ZM138.228 34.9742H138.183H134.555C134.291 34.9742 134.291 34.842 134.291 34.7097V15.7791C134.291 15.5147 134.423 15.5147 134.555 15.5147H138.314C138.577 15.5147 138.577 15.6469 138.577 15.7791V18.9333C138.743 18.7031 138.923 18.4824 139.115 18.2726C139.751 17.4752 140.545 16.8184 141.447 16.3436C142.349 15.8687 143.34 15.5861 144.355 15.5135C144.453 15.5072 144.549 15.4891 144.642 15.4592C144.756 15.4232 144.874 15.4019 144.992 15.3959C145.048 15.3939 145.104 15.4032 145.156 15.4235C145.208 15.4437 145.255 15.4743 145.295 15.5135C145.371 15.5896 145.424 15.6844 145.451 15.7882C145.478 15.8921 145.477 16.0011 145.447 16.1041C145.437 16.1697 145.431 16.236 145.43 16.3024V19.0615C145.43 19.3257 145.298 19.3257 145.166 19.3257C145 19.3139 144.832 19.3072 144.666 19.3072C143.469 19.3058 142.295 19.6301 141.268 20.2455C140.441 20.7237 139.757 21.4144 139.284 22.2464C138.812 23.0783 138.569 24.0215 138.581 24.9789C138.492 27.1751 138.521 29.3396 138.551 31.4287C138.566 32.4661 138.581 33.5299 138.581 34.5737C138.587 34.6274 138.581 34.6819 138.562 34.7328C138.544 34.7837 138.515 34.8295 138.476 34.8669C138.41 34.9336 138.321 34.9724 138.228 34.9756V34.9742ZM47.598 31.2914C47.5302 31.2844 47.4671 31.2544 47.4192 31.2062C47.3712 31.1582 47.3413 31.0948 47.3344 31.0268C47.2315 30.895 26.7729 8.905 25.5624 7.89012C25.3909 7.72362 25.2699 7.65225 25.158 7.65225C24.9999 7.65225 24.8577 7.791 24.6219 8.021C24.4362 8.20069 3.24488 30.7669 2.97752 31.1605C2.93741 31.2072 2.88168 31.2377 2.82079 31.2465C2.80387 31.2465 2.78732 31.2414 2.77308 31.2326C2.75883 31.2234 2.74749 31.2104 2.74044 31.1947C2.71643 31.1429 2.70559 31.0856 2.70882 31.0282C2.03548 28.681 1.76296 26.2362 1.90282 23.7975C2.0176 20.2682 3.03537 16.8281 4.85827 13.8075C6.42183 10.9062 8.60592 8.38794 11.2539 6.43344C13.9019 4.47893 16.9482 3.13662 20.1742 2.50272C21.9275 2.0854 23.7234 1.87473 25.5254 1.87501C28.6186 1.87195 31.6803 2.49665 34.5263 3.7116C37.3728 4.92654 39.9446 6.70662 42.0871 8.94462C45.4868 12.2575 47.7077 16.5988 48.4093 21.3013C48.6357 22.5581 48.7242 23.8361 48.6725 25.1124C48.5568 27.1108 48.2415 29.0926 47.7322 31.0282C47.7322 31.1646 47.7322 31.2914 47.598 31.2914ZM125.334 12.494C124.681 12.4975 124.052 12.2431 123.584 11.7857C123.346 11.5542 123.159 11.2756 123.035 10.9675C122.91 10.6594 122.851 10.3287 122.861 9.9965C122.867 9.31281 123.137 8.65806 123.612 8.1685C124.088 7.67894 124.734 7.39231 125.414 7.36819H125.465C125.803 7.368 126.137 7.4355 126.449 7.56669C126.761 7.69781 127.044 7.88994 127.281 8.132C127.52 8.37681 127.704 8.66956 127.821 8.99081C127.94 9.31212 127.989 9.65487 127.966 9.9965C127.964 10.3257 127.898 10.6514 127.769 10.9545C127.641 11.2576 127.454 11.5321 127.219 11.7619C126.733 12.2299 126.087 12.4917 125.413 12.4927L125.334 12.494Z" fill="white"/>
</svg>
