<?xml version="1.0" encoding="UTF-8"?>
<svg xmlns="http://www.w3.org/2000/svg" xmlns:xlink="http://www.w3.org/1999/xlink" width="169px" height="169px" viewBox="0 0 169 169" version="1.1">
<g id="surface1">
<path style=" stroke:none;fill-rule:nonzero;fill:rgb(100%,100%,100%);fill-opacity:1;" d="M 32.269531 28.992188 L 136.617188 28.992188 L 136.617188 123.828125 L 32.269531 123.828125 Z M 32.269531 28.992188 "/>
<path style=" stroke:none;fill-rule:evenodd;fill:rgb(90.980392%,25.490196%,25.882353%);fill-opacity:1;" d="M 168.945312 84.5 C 168.945312 131.105469 131.136719 168.886719 84.5 168.886719 C 37.863281 168.886719 0.0546875 131.105469 0.0546875 84.5 C 0.0546875 37.894531 37.863281 0.113281 84.5 0.113281 C 131.136719 0.113281 168.945312 37.894531 168.945312 84.5 Z M 60.570312 118.082031 L 44.183594 118.082031 C 40.738281 118.082031 39.039062 118.082031 38 117.417969 C 36.878906 116.691406 36.195312 115.492188 36.113281 114.164062 C 36.050781 112.941406 36.902344 111.449219 38.601562 108.460938 L 79.066406 37.1875 C 80.789062 34.160156 81.660156 32.644531 82.757812 32.085938 C 83.941406 31.484375 85.351562 31.484375 86.535156 32.085938 C 87.632812 32.644531 88.503906 34.160156 90.226562 37.1875 L 98.546875 51.699219 L 98.589844 51.773438 C 100.449219 55.019531 101.390625 56.664062 101.804688 58.394531 C 102.257812 60.28125 102.257812 62.269531 101.804688 64.15625 C 101.386719 65.898438 100.453125 67.558594 98.566406 70.851562 L 77.3125 108.402344 L 77.257812 108.496094 C 75.386719 111.769531 74.4375 113.429688 73.121094 114.683594 C 71.691406 116.050781 69.96875 117.042969 68.082031 117.605469 C 66.359375 118.082031 64.429688 118.082031 60.570312 118.082031 Z M 101.957031 118.082031 L 125.4375 118.082031 C 128.902344 118.082031 130.644531 118.082031 131.683594 117.398438 C 132.804688 116.671875 133.507812 115.449219 133.570312 114.125 C 133.632812 112.941406 132.800781 111.503906 131.167969 108.695312 C 131.113281 108.597656 131.054688 108.5 131 108.402344 L 119.238281 88.292969 L 119.101562 88.066406 C 117.449219 85.273438 116.617188 83.863281 115.542969 83.316406 C 114.363281 82.714844 112.972656 82.714844 111.789062 83.316406 C 110.710938 83.875 109.839844 85.347656 108.117188 88.3125 L 96.398438 108.421875 L 96.355469 108.492188 C 94.640625 111.449219 93.785156 112.929688 93.84375 114.144531 C 93.929688 115.46875 94.613281 116.691406 95.734375 117.417969 C 96.75 118.082031 98.492188 118.082031 101.957031 118.082031 Z M 101.957031 118.082031 "/>
</g>
</svg>
