<?xml version="1.0" encoding="UTF-8"?>
<svg xmlns="http://www.w3.org/2000/svg" xmlns:xlink="http://www.w3.org/1999/xlink" width="169px" height="99px" viewBox="0 0 168 99" version="1.1">
<g id="surface1">
<path style=" stroke:none;fill-rule:evenodd;fill:rgb(100%,100%,100%);fill-opacity:1;" d="M 97.847656 38.742188 C 99.027344 39.007812 99.355469 37.621094 102.046875 37.621094 C 104.210938 37.554688 106.3125 36.234375 106.378906 38.808594 C 108.019531 36.828125 107.558594 34.121094 104.148438 33.199219 C 102.570312 32.800781 102.835938 33.265625 101.785156 32.207031 C 98.765625 29.105469 94.828125 30.492188 92.726562 32.800781 C 94.761719 32.472656 99.75 30.226562 100.667969 33.066406 L 98.503906 33.265625 C 98.371094 33.527344 98.242188 33 98.371094 33.859375 C 98.371094 34.121094 98.503906 34.320312 98.699219 34.453125 C 99.027344 34.714844 99.160156 34.585938 99.683594 34.914062 C 99.75 34.914062 99.75 34.980469 99.816406 34.980469 C 99.882812 34.980469 99.882812 35.046875 99.945312 35.046875 C 98.503906 35.441406 97.519531 36.761719 97.847656 38.742188 Z M 97.847656 38.742188 "/>
<path style=" stroke:none;fill-rule:evenodd;fill:rgb(100%,100%,100%);fill-opacity:1;" d="M 75.074219 62.566406 C 82.425781 63.492188 85.640625 54.121094 85.707031 48.839844 C 85.707031 48.90625 85.640625 48.90625 85.640625 48.972656 L 85.445312 49.300781 C 84.261719 52.273438 84.261719 53.65625 81.703125 57.089844 C 80.390625 58.871094 78.816406 60.324219 76.976562 61.511719 C 76.453125 61.777344 75.402344 62.238281 75.074219 62.566406 Z M 75.074219 62.566406 "/>
<path style=" stroke:none;fill-rule:evenodd;fill:rgb(100%,100%,100%);fill-opacity:1;" d="M 90.890625 51.941406 C 95.417969 47.785156 96.992188 41.777344 94.039062 36.035156 C 92.53125 33.066406 91.285156 32.074219 88.460938 30.425781 C 86.164062 29.105469 83.671875 27.984375 81.046875 26.863281 C 78.289062 25.675781 75.929688 24.882812 73.5 23.429688 C 70.023438 21.382812 64.179688 16.367188 64.117188 10.558594 C 63.722656 10.890625 63.394531 11.285156 63.132812 11.8125 C 58.40625 20.527344 71.925781 26.664062 78.09375 28.84375 C 75.402344 28.578125 70.414062 26.335938 68.316406 25.078125 C 65.429688 23.363281 63.132812 21.316406 61.621094 18.148438 C 60.179688 19.46875 60.636719 22.835938 62.148438 25.015625 C 65.757812 30.097656 75.074219 32.472656 81.046875 33.859375 C 77.4375 33.988281 69.367188 32.074219 65.886719 30.097656 C 63.328125 28.710938 62.933594 27.589844 62.277344 27.324219 C 60.769531 35.242188 75.273438 37.289062 82.292969 37.753906 C 78.945312 37.949219 73.171875 37.421875 69.695312 36.695312 C 68.382812 36.433594 67.199219 35.96875 66.019531 35.640625 C 66.214844 39.664062 74.289062 40.390625 78.355469 40.261719 L 83.476562 40.0625 C 83.34375 40.195312 83.539062 40.128906 83.148438 40.261719 C 81.964844 40.65625 76.714844 40.984375 75.601562 40.921875 L 71.269531 40.65625 C 72.449219 43.164062 78.226562 43.03125 81.113281 42.570312 C 82.097656 42.371094 83.410156 41.976562 84.394531 41.910156 C 81.964844 43.625 77.832031 43.429688 74.617188 43.691406 C 76.78125 44.285156 78.09375 44.878906 80.785156 44.484375 C 82.820312 44.152344 84.65625 42.964844 86.558594 42.964844 C 86.558594 43.03125 86.625 43.03125 86.625 43.097656 C 86.625 43.164062 86.691406 43.164062 86.691406 43.230469 C 87.675781 45.472656 87.742188 54.582031 85.378906 57.355469 C 86.492188 56.363281 89.578125 53.195312 90.890625 51.941406 Z M 90.890625 51.941406 "/>
<path style=" stroke:none;fill-rule:evenodd;fill:rgb(100%,100%,100%);fill-opacity:1;" d="M 16.867188 86.0625 C 17.652344 86.0625 18.308594 85.933594 18.769531 85.601562 C 19.226562 85.273438 19.492188 84.742188 19.425781 84.214844 L 19.425781 84.148438 C 19.425781 83.621094 19.164062 83.09375 18.769531 82.828125 C 18.308594 82.5 17.652344 82.367188 16.734375 82.367188 L 13.058594 82.367188 L 13.058594 86.0625 Z M 16.144531 80.386719 C 16.800781 80.453125 17.390625 80.257812 17.980469 79.925781 C 18.441406 79.597656 18.703125 79.066406 18.636719 78.539062 L 18.636719 78.472656 C 18.636719 77.945312 18.441406 77.484375 18.046875 77.21875 C 17.652344 76.890625 17.0625 76.757812 16.273438 76.757812 L 12.929688 76.757812 L 12.929688 80.320312 Z M 10.632812 74.644531 L 16.601562 74.644531 C 18.113281 74.644531 19.292969 75.042969 20.082031 75.835938 C 20.671875 76.429688 21 77.21875 21 78.078125 L 21 78.144531 C 21 78.539062 20.933594 78.871094 20.867188 79.265625 C 20.671875 79.859375 20.34375 80.386719 19.820312 80.71875 C 19.621094 80.914062 19.359375 81.046875 19.097656 81.179688 C 19.492188 81.3125 19.820312 81.445312 20.148438 81.640625 C 20.476562 81.839844 20.738281 82.039062 21 82.300781 C 21.261719 82.566406 21.394531 82.894531 21.523438 83.226562 C 21.65625 83.621094 21.722656 84.019531 21.722656 84.414062 L 21.722656 84.480469 C 21.722656 85.007812 21.589844 85.601562 21.394531 86.0625 C 21.132812 86.527344 20.804688 86.921875 20.410156 87.253906 C 19.949219 87.582031 19.425781 87.847656 18.835938 87.976562 C 18.179688 88.175781 17.523438 88.242188 16.800781 88.242188 L 10.632812 88.242188 Z M 10.632812 74.644531 "/>
<path style=" stroke:none;fill-rule:evenodd;fill:rgb(100%,100%,100%);fill-opacity:1;" d="M 27.101562 74.644531 L 29.398438 74.644531 L 29.398438 86.0625 L 36.421875 86.0625 L 36.421875 88.175781 L 27.101562 88.175781 Z M 27.101562 74.644531 "/>
<path style=" stroke:none;fill-rule:evenodd;fill:rgb(100%,100%,100%);fill-opacity:1;" d="M 48.039062 86.261719 C 49.285156 86.261719 50.464844 85.734375 51.253906 84.875 C 51.648438 84.414062 51.976562 83.953125 52.171875 83.359375 C 52.367188 82.765625 52.5 82.171875 52.5 81.511719 L 52.5 81.445312 C 52.5 80.785156 52.367188 80.191406 52.171875 79.597656 C 51.777344 78.472656 50.925781 77.550781 49.808594 77.023438 C 49.21875 76.757812 48.628906 76.625 47.972656 76.625 C 47.316406 76.625 46.726562 76.757812 46.132812 77.023438 C 45.609375 77.285156 45.148438 77.617188 44.691406 78.078125 C 44.296875 78.539062 43.96875 79.003906 43.773438 79.597656 C 43.574219 80.191406 43.445312 80.785156 43.445312 81.445312 L 43.445312 81.511719 C 43.445312 82.171875 43.574219 82.765625 43.773438 83.359375 C 43.96875 83.953125 44.296875 84.414062 44.691406 84.875 C 45.085938 85.339844 45.609375 85.667969 46.132812 85.933594 C 46.789062 86.128906 47.382812 86.261719 48.039062 86.261719 Z M 47.972656 88.441406 C 46.988281 88.441406 46.070312 88.242188 45.148438 87.910156 C 44.296875 87.582031 43.574219 87.054688 42.984375 86.394531 C 42.394531 85.734375 41.867188 85.007812 41.539062 84.214844 C 41.210938 83.359375 41.015625 82.433594 41.015625 81.511719 L 41.015625 81.445312 C 41.015625 80.519531 41.210938 79.597656 41.539062 78.738281 C 41.867188 77.945312 42.394531 77.152344 42.984375 76.558594 C 44.296875 75.175781 46.132812 74.449219 48.039062 74.515625 C 49.023438 74.515625 49.941406 74.710938 50.859375 75.042969 C 51.710938 75.371094 52.433594 75.898438 53.023438 76.558594 C 53.617188 77.21875 54.140625 77.945312 54.46875 78.738281 C 54.796875 79.597656 54.992188 80.519531 54.992188 81.445312 L 54.992188 81.511719 C 54.992188 82.433594 54.796875 83.359375 54.46875 84.214844 C 54.140625 85.074219 53.617188 85.800781 53.023438 86.460938 C 51.710938 87.714844 49.875 88.441406 47.972656 88.441406 Z M 47.972656 88.441406 "/>
<path style=" stroke:none;fill-rule:evenodd;fill:rgb(100%,100%,100%);fill-opacity:1;" d="M 66.742188 88.441406 C 63.984375 88.507812 61.492188 86.789062 60.441406 84.214844 C 60.113281 83.359375 59.914062 82.433594 59.914062 81.511719 L 59.914062 81.445312 C 59.914062 80.519531 60.113281 79.597656 60.441406 78.738281 C 60.769531 77.945312 61.226562 77.152344 61.882812 76.558594 C 62.476562 75.898438 63.261719 75.4375 64.050781 75.042969 C 64.902344 74.644531 65.886719 74.449219 66.804688 74.515625 C 67.398438 74.515625 67.921875 74.578125 68.445312 74.644531 C 68.90625 74.710938 69.367188 74.910156 69.824219 75.109375 C 70.21875 75.304688 70.613281 75.503906 71.007812 75.769531 C 71.335938 76.03125 71.726562 76.296875 71.992188 76.625 L 70.480469 78.34375 C 69.957031 77.878906 69.429688 77.417969 68.773438 77.152344 C 68.117188 76.824219 67.460938 76.691406 66.742188 76.691406 C 66.148438 76.691406 65.558594 76.824219 64.96875 77.089844 C 64.445312 77.351562 63.984375 77.683594 63.589844 78.144531 C 63.195312 78.605469 62.867188 79.066406 62.671875 79.660156 C 62.476562 80.257812 62.34375 80.914062 62.34375 81.511719 L 62.34375 81.574219 C 62.34375 82.234375 62.476562 82.828125 62.671875 83.425781 C 62.867188 84.019531 63.195312 84.546875 63.589844 84.941406 C 63.984375 85.402344 64.445312 85.734375 64.96875 85.996094 C 65.492188 86.261719 66.148438 86.394531 66.742188 86.394531 C 67.460938 86.394531 68.183594 86.261719 68.839844 85.933594 C 69.496094 85.601562 70.023438 85.140625 70.546875 84.679688 L 72.054688 86.195312 C 71.726562 86.527344 71.335938 86.921875 71.007812 87.1875 C 70.613281 87.449219 70.21875 87.714844 69.824219 87.910156 C 69.367188 88.109375 68.90625 88.308594 68.382812 88.375 C 67.855469 88.375 67.332031 88.441406 66.742188 88.441406 Z M 66.742188 88.441406 "/>
<path style=" stroke:none;fill-rule:evenodd;fill:rgb(100%,100%,100%);fill-opacity:1;" d="M 77.304688 74.644531 L 79.601562 74.644531 L 79.601562 81.445312 L 85.96875 74.644531 L 88.855469 74.644531 L 83.277344 80.453125 L 89.117188 88.175781 L 86.230469 88.175781 L 81.703125 82.105469 L 79.601562 84.28125 L 79.601562 88.175781 L 77.304688 88.175781 Z M 77.304688 74.644531 "/>
<path style=" stroke:none;fill-rule:evenodd;fill:rgb(100%,100%,100%);fill-opacity:1;" d="M 98.4375 85.933594 L 94.566406 74.644531 L 92.925781 74.644531 L 97.714844 88.308594 L 98.960938 88.308594 L 102.636719 77.285156 L 106.3125 88.308594 L 107.625 88.308594 L 112.351562 74.644531 L 110.773438 74.644531 L 106.96875 85.933594 L 103.292969 74.644531 L 102.046875 74.644531 Z M 98.4375 85.933594 "/>
<path style=" stroke:none;fill-rule:evenodd;fill:rgb(100%,100%,100%);fill-opacity:1;" d="M 122.390625 74.578125 L 121.011719 74.578125 L 114.976562 88.175781 L 116.484375 88.175781 L 118.058594 84.613281 L 125.34375 84.613281 L 126.917969 88.175781 L 128.558594 88.175781 Z M 124.753906 83.226562 L 118.648438 83.226562 L 121.667969 76.363281 Z M 124.753906 83.226562 "/>
<path style=" stroke:none;fill-rule:evenodd;fill:rgb(100%,100%,100%);fill-opacity:1;" d="M 133.808594 88.175781 L 142.867188 88.175781 L 142.867188 86.789062 L 135.320312 86.789062 L 135.320312 74.644531 L 133.808594 74.644531 Z M 133.808594 88.175781 "/>
<path style=" stroke:none;fill-rule:evenodd;fill:rgb(100%,100%,100%);fill-opacity:1;" d="M 148.378906 88.175781 L 157.367188 88.175781 L 157.367188 86.789062 L 149.820312 86.789062 L 149.820312 74.644531 L 148.378906 74.644531 Z M 148.378906 88.175781 "/>
</g>
</svg>
