<svg width="215" height="50" viewBox="0 0 215 50" fill="none" xmlns="http://www.w3.org/2000/svg">
<path d="M68.1499 19.0095C68.1499 17.9069 67.8278 17.0245 67.1828 16.3626C66.539 15.702 65.4409 15.3717 63.8911 15.3717H61.3059V22.7579H63.8699C65.5357 22.7579 66.6792 22.3956 67.303 21.6677C67.8676 21.0154 68.1499 20.1284 68.1499 19.0095ZM76.1193 18.9244C76.1193 21.5987 75.4917 23.8128 74.236 25.5635C72.6045 27.8345 69.8967 28.9691 66.1146 28.9691H61.3059V38.809H53.6172V9.15967H65.8541C69.334 9.15967 71.9751 10.18 73.7805 12.2196C75.3403 13.9712 76.1193 16.2047 76.1193 18.9244Z" fill="white"/>
<path d="M93.4713 27.7755L90.288 18.3265L87.0618 27.7755H93.4713ZM105.666 38.8095H97.4572L95.5509 33.6385H84.938L82.902 38.8095H74.7812L86.1519 9.15967H94.5338L105.666 38.8095Z" fill="white"/>
<path d="M131.167 9.15967L120.1 24.5614V38.809H112.41V24.5614L101.711 9.15967H110.894L116.482 17.2405L121.854 9.15967H131.167Z" fill="white"/>
<path d="M144.433 29.665C144.433 30.8657 144.359 31.852 144.215 32.6186C143.912 34.2551 143.038 35.7325 141.595 37.0508C139.731 38.7588 137.458 39.613 134.772 39.613C131.594 39.613 129.024 38.1535 127.062 35.2344L132.098 30.0996C132.328 32.0249 133.164 32.988 134.604 32.988C136.074 32.988 136.793 31.8434 136.764 29.5529L136.743 27.9222V9.15967H144.433V29.665Z" fill="white"/>
<path d="M173.507 24.0831C173.507 21.9921 172.84 20.184 171.509 18.6592C169.799 16.7152 167.664 15.7422 165.102 15.7422C163.336 15.7422 161.737 16.2391 160.303 17.2337C158.87 18.2271 157.849 19.5533 157.242 21.2072C156.894 22.1516 156.72 23.1093 156.72 24.0831C156.72 26.0865 157.386 27.88 158.718 29.4601C160.367 31.4215 162.497 32.402 165.102 32.402C167.708 32.402 169.844 31.4302 171.509 29.4829C172.84 27.9307 173.507 26.131 173.507 24.0831ZM181.477 24.0831C181.477 28.1073 180.141 31.64 177.47 34.6833C174.423 38.1441 170.3 39.8746 165.102 39.8746C159.918 39.8746 155.803 38.1441 152.757 34.6833C150.085 31.64 148.75 28.1073 148.75 24.0831C148.75 22.2438 149.111 20.3572 149.832 18.4248C150.555 16.4908 151.522 14.8365 152.735 13.4613C155.783 10.0005 159.904 8.27002 165.102 8.27002C170.3 8.27002 174.423 10.0005 177.47 13.4613C180.141 16.5016 181.477 20.0435 181.477 24.0831Z" fill="white"/>
<path d="M209.393 9.15967L198.325 24.5614V38.809H190.638V24.5614L179.938 9.15967H189.12L194.708 17.2405L200.08 9.15967H209.393Z" fill="white"/>
<path fill-rule="evenodd" clip-rule="evenodd" d="M39.8447 6.3564C36.5145 6.31277 15.1948 6.1794 10.1773 9.79565C5.71569 13.0121 3.06813 17.8191 2.45212 22.8903C2.20109 23.9269 2.02295 24.9805 1.93844 26.0478C1.91193 26.3981 1.88915 26.7471 1.88003 27.0986V27.7321L1.86719 37.037C14.6617 16.3866 33.7704 8.44452 39.8447 6.3564Z" fill="white"/>
<path fill-rule="evenodd" clip-rule="evenodd" d="M3.59375 43.8704H13.8993C13.8993 43.8704 26.5174 44.3486 31.9637 40.4233C36.427 37.2064 39.0724 32.4006 39.6893 27.3286C39.9391 26.2937 40.1181 25.24 40.2034 24.171C40.2307 23.8229 40.2527 23.4722 40.2614 23.1207L40.2622 22.4872L40.2846 6.55029C17.3875 19.0517 7.62496 34.5419 3.59375 43.8704Z" fill="white"/>
</svg>
