<svg width="268" height="50" viewBox="0 0 268 50" fill="none" xmlns="http://www.w3.org/2000/svg">
<g clip-path="url(#clip0_1110_830)">
<mask id="mask0_1110_830" style="mask-type:alpha" maskUnits="userSpaceOnUse" x="1" y="4" width="53" height="42">
<path d="M22.1041 4.375C33.6213 4.375 42.9582 13.6168 42.9582 25.0173C42.9582 26.3726 41.8488 27.4713 40.4789 27.4713C39.1102 27.4713 38 26.3726 38 25.0173C38 16.3274 30.8828 9.28312 22.1041 9.28312C13.3255 9.28312 6.20819 16.3274 6.20819 25.0173C6.20819 33.7071 13.3255 40.7514 22.1041 40.7514C23.4734 40.7514 24.5835 41.8501 24.5835 43.2054C24.5835 44.5607 23.4734 45.6595 22.1041 45.6595C10.587 45.6595 1.25 36.4177 1.25 25.0173C1.25 13.6168 10.587 4.375 22.1041 4.375ZM38.8117 39.5076L33.8229 34.5481C33.1993 33.9283 32.2773 33.7118 31.4417 33.989L31.4093 33.9996C29.7686 34.5434 29.2767 36.6141 30.5002 37.8302L37.1168 44.408C37.7297 45.0178 38.6306 45.2366 39.4551 44.9813C39.8683 44.8916 40.2655 44.687 40.5988 44.3555L53.132 31.8952C53.7556 31.276 53.9736 30.3589 53.6944 29.5279L53.6745 29.4671C53.1267 27.8358 51.044 27.3469 49.8211 28.563L38.8117 39.5076Z" fill="white"/>
</mask>
<g mask="url(#mask0_1110_830)">
<path d="M22.1041 4.375C33.6213 4.375 42.9582 13.6168 42.9582 25.0173C42.9582 26.3726 41.8488 27.4713 40.4789 27.4713C39.1102 27.4713 38 26.3726 38 25.0173C38 16.3274 30.8828 9.28312 22.1041 9.28312C13.3255 9.28312 6.20819 16.3274 6.20819 25.0173C6.20819 33.7071 13.3255 40.7514 22.1041 40.7514C23.4734 40.7514 24.5835 41.8501 24.5835 43.2054C24.5835 44.5607 23.4734 45.6595 22.1041 45.6595C10.587 45.6595 1.25 36.4177 1.25 25.0173C1.25 13.6168 10.587 4.375 22.1041 4.375ZM38.8117 39.5076L33.8229 34.5481C33.1993 33.9283 32.2773 33.7118 31.4417 33.989L31.4093 33.9996C29.7686 34.5434 29.2767 36.6141 30.5002 37.8302L37.1168 44.408C37.7297 45.0178 38.6306 45.2366 39.4551 44.9813C39.8683 44.8916 40.2655 44.687 40.5988 44.3555L53.132 31.8952C53.7556 31.276 53.9736 30.3589 53.6944 29.5279L53.6745 29.4671C53.1267 27.8358 51.044 27.3469 49.8211 28.563L38.8117 39.5076Z" fill="white"/>
<path d="M53.8141 4.375H1.25V47.6254H53.8141V4.375Z" fill="white"/>
</g>
<path d="M94.0947 23.5658C93.9923 28.9149 91.386 33.1326 86.9968 34.9499L90.0147 38.276C90.2546 38.516 90.4258 38.8932 90.4258 39.2704C90.4602 40.059 89.7742 40.7448 88.9515 40.7448C88.5061 40.7448 88.1287 40.5391 87.8545 40.1962L84.1169 35.7386C83.4653 35.8414 82.7794 35.8757 82.0591 35.8757C74.7212 35.8757 70.1609 30.7323 70.0234 23.5658C70.1609 16.3993 74.7212 11.2559 82.0591 11.2559C89.3632 11.2559 93.9579 16.3993 94.0947 23.5658ZM81.8136 32.8811C87.4253 32.8811 90.6563 28.7914 90.6563 23.5429C90.6563 18.2945 87.4253 14.2048 81.8136 14.2048C76.1681 14.2048 72.9714 18.2945 72.9714 23.5429C72.9714 28.7914 76.1681 32.8811 81.8136 32.8811ZM105.178 35.83C101.248 35.83 99.0074 32.7473 99.0074 29.041V19.2039C99.0074 18.3379 99.7314 17.6451 100.594 17.6451C101.455 17.6451 102.145 18.3379 102.145 19.2039V28.6946C102.145 31.3271 103.248 32.9204 105.937 32.9204C108.419 32.9204 110.212 31.3271 111.59 29.5952V19.2039C111.59 18.3379 112.314 17.6451 113.176 17.6451C114.038 17.6451 114.728 18.3379 114.728 19.2039V34.0634C114.728 34.9641 114.038 35.6568 113.176 35.6568C112.314 35.6568 111.59 34.9641 111.59 34.0634V32.6433C110.143 34.2366 108.247 35.83 105.178 35.83ZM122.08 18.1366C122.923 18.1366 123.57 18.8171 123.57 19.7018V34.2988C123.57 35.1495 122.923 35.83 122.08 35.83C121.271 35.83 120.623 35.1495 120.623 34.2988V19.7018C120.623 18.8171 121.271 18.1366 122.08 18.1366ZM124.061 12.4197C124.061 12.4521 124.061 12.5171 124.061 12.5495C124.061 13.4583 123.224 14.2048 122.205 14.2048H121.987C120.968 14.2048 120.131 13.4583 120.131 12.5495V12.4197C120.131 11.5109 120.968 10.7644 121.987 10.7644H122.205C123.224 10.7644 124.061 11.5109 124.061 12.4197ZM142.917 31.6098C143.627 31.6098 144.203 32.3303 144.203 32.9822C144.203 33.4968 143.932 33.9086 143.526 34.1831C142.375 34.9379 140.684 35.83 138.01 35.83C133.204 35.83 128.974 32.4675 128.974 26.7376C128.974 21.0076 133.204 17.6451 138.01 17.6451C140.684 17.6451 142.375 18.5373 143.526 19.2921C143.932 19.5666 144.203 19.9783 144.203 20.493C144.203 21.1449 143.627 21.8654 142.917 21.8654C142.646 21.8654 142.477 21.8311 142.172 21.6596C140.988 21.042 140.04 20.5616 138.28 20.5616C134.355 20.5616 132.054 23.0663 132.054 26.7376C132.054 30.4089 134.355 32.9136 138.28 32.9136C140.04 32.9136 140.988 32.4332 142.172 31.8156C142.477 31.6441 142.646 31.6098 142.917 31.6098ZM163.512 33.3779C163.717 33.6542 163.853 33.965 163.853 34.3104C163.853 35.2429 163.206 35.83 162.287 35.83C161.811 35.83 161.335 35.5537 161.028 35.1738L155.174 27.0923L152.213 29.8206V34.2759C152.213 35.1393 151.498 35.83 150.647 35.83C149.796 35.83 149.115 35.1393 149.115 34.2759V11.8616C149.115 10.9982 149.796 10.2729 150.647 10.2729C151.498 10.2729 152.213 10.9982 152.213 11.8616V25.9871L160.313 18.389C160.586 18.1473 160.926 17.9401 161.335 17.9401C162.492 17.9401 162.832 18.7689 162.832 19.4596C162.832 19.7359 162.73 20.1504 162.254 20.6339L157.352 25.0891L163.512 33.3779ZM186.547 31.1068C187.407 31.1068 187.957 31.7571 187.923 32.4759C187.888 33.1262 187.614 33.4684 187.166 33.708C185.035 34.9059 182.696 35.83 179.327 35.83C172.484 35.83 167.292 31.1753 167.292 23.5429C167.292 15.9106 172.484 11.2559 179.327 11.2559C182.696 11.2559 185.035 12.18 187.166 13.3779C187.614 13.6174 187.888 13.9597 187.923 14.61C187.957 15.3288 187.407 15.9791 186.547 15.9791C186.375 15.9791 186.135 15.9448 185.929 15.8421C184.106 14.8838 182.318 14.2335 179.636 14.2335C173.55 14.2335 170.421 18.2722 170.421 23.5429C170.421 28.8137 173.55 32.8524 179.636 32.8524C182.318 32.8524 184.106 32.2021 185.929 31.2438C186.135 31.1411 186.375 31.1068 186.547 31.1068ZM201.895 17.6983C205.825 17.6983 208.066 20.7721 208.066 24.4674V34.2759C208.066 35.1393 207.342 35.83 206.48 35.83C205.618 35.83 204.929 35.1393 204.929 34.2759V24.8128C204.929 22.1881 203.825 20.5994 201.137 20.5994C198.655 20.5994 196.862 22.1881 195.483 23.9149V34.2759C195.483 35.1393 194.759 35.83 193.897 35.83C193.035 35.83 192.346 35.1393 192.346 34.2759V11.8616C192.346 10.9636 193.035 10.2729 193.897 10.2729C194.759 10.2729 195.483 10.9636 195.483 11.8616V20.8756C196.93 19.2869 198.826 17.6983 201.895 17.6983ZM227.253 31.7127C227.966 31.7127 228.612 32.2616 228.612 33.0508C228.612 33.5998 228.204 34.0458 227.728 34.3203C226.233 35.1781 224.738 35.83 221.781 35.83C216.241 35.83 212.978 32.5018 212.978 26.7376C212.978 22.1056 215.459 17.6451 221.101 17.6451C226.335 17.6451 229.19 21.7282 229.19 26.2915C229.19 27.1493 228.578 27.8355 227.626 27.8355H216.105C216.445 30.9235 218.382 32.9136 222.053 32.9136C224.092 32.9136 225.383 32.5018 226.64 31.8499C226.845 31.747 227.015 31.7127 227.253 31.7127ZM221.067 20.5941C218.828 20.5941 216.136 22.0079 215.926 25.5089H226.242C226.033 22.0079 223.304 20.5941 221.067 20.5941ZM247.063 31.6098C247.773 31.6098 248.348 32.3303 248.348 32.9822C248.348 33.4968 248.078 33.9086 247.672 34.1831C246.521 34.9379 244.829 35.83 242.156 35.83C237.35 35.83 233.12 32.4675 233.12 26.7376C233.12 21.0076 237.35 17.6451 242.156 17.6451C244.829 17.6451 246.521 18.5373 247.672 19.2921C248.078 19.5666 248.348 19.9783 248.348 20.493C248.348 21.1449 247.773 21.8654 247.063 21.8654C246.792 21.8654 246.622 21.8311 246.318 21.6596C245.134 21.042 244.186 20.5616 242.426 20.5616C238.5 20.5616 236.199 23.0663 236.199 26.7376C236.199 30.4089 238.5 32.9136 242.426 32.9136C244.186 32.9136 245.134 32.4332 246.318 31.8156C246.622 31.6441 246.792 31.6098 247.063 31.6098ZM267.658 33.3779C267.862 33.6542 267.999 33.965 267.999 34.3104C267.999 35.2429 267.352 35.83 266.433 35.83C265.956 35.83 265.48 35.5537 265.174 35.1738L259.32 27.0923L256.358 29.8206V34.2759C256.358 35.1393 255.644 35.83 254.793 35.83C253.942 35.83 253.261 35.1393 253.261 34.2759V11.8616C253.261 10.9982 253.942 10.2729 254.793 10.2729C255.644 10.2729 256.358 10.9982 256.358 11.8616V25.9871L264.459 18.389C264.731 18.1473 265.072 17.9401 265.48 17.9401C266.637 17.9401 266.978 18.7689 266.978 19.4596C266.978 19.7359 266.875 20.1504 266.399 20.6339L261.498 25.0891L267.658 33.3779Z" fill="white"/>
</g>
<defs>
<clipPath id="clip0_1110_830">
<rect width="268" height="50" fill="white"/>
</clipPath>
</defs>
</svg>
