<svg width="98" height="101" viewBox="0 0 98 101" fill="none" xmlns="http://www.w3.org/2000/svg">
<path d="M98 101L6.91414e-06 101L49 49.1351L98 -5.96046e-06L98 101Z" fill="url(#paint0_linear_1110_789)"/>
<path d="M75.92 71.3802C76.02 71.1367 76.02 70.8636 75.92 70.6202C75.8724 70.4974 75.801 70.3853 75.71 70.2902L68.71 63.2902C68.6168 63.1969 68.5061 63.123 68.3842 63.0725C68.2624 63.0221 68.1319 62.9961 68 62.9961C67.7337 62.9961 67.4783 63.1019 67.29 63.2902C67.1968 63.3834 67.1228 63.4941 67.0723 63.6159C67.0219 63.7378 66.9959 63.8683 66.9959 64.0002C66.9959 64.2665 67.1017 64.5219 67.29 64.7102L72.59 70.0002H57C56.7348 70.0002 56.4804 70.1055 56.2929 70.2931C56.1054 70.4806 56 70.735 56 71.0002C56 71.2654 56.1054 71.5198 56.2929 71.7073C56.4804 71.8948 56.7348 72.0002 57 72.0002H72.59L67.29 77.2902C67.1963 77.3831 67.1219 77.4937 67.0711 77.6156C67.0203 77.7375 66.9942 77.8682 66.9942 78.0002C66.9942 78.1322 67.0203 78.2629 67.0711 78.3848C67.1219 78.5066 67.1963 78.6172 67.29 78.7102C67.383 78.8039 67.4936 78.8783 67.6154 78.9291C67.7373 78.9798 67.868 79.006 68 79.006C68.132 79.006 68.2627 78.9798 68.3846 78.9291C68.5064 78.8783 68.617 78.8039 68.71 78.7102L75.71 71.7102C75.801 71.6151 75.8724 71.5029 75.92 71.3802Z" fill="white"/>
<defs>
<linearGradient id="paint0_linear_1110_789" x1="103.5" y1="143" x2="2.21853" y2="66.7403" gradientUnits="userSpaceOnUse">
<stop stop-color="#480FEB"/>
<stop offset="1" stop-color="#B82FFF"/>
</linearGradient>
</defs>
</svg>
