<svg width="644" height="226" viewBox="0 0 644 226" fill="none" xmlns="http://www.w3.org/2000/svg">
<mask id="path-1-inside-1_1110_784" fill="white">
<path fill-rule="evenodd" clip-rule="evenodd" d="M108 0H644V114.507L590 168.747L536 226L0 226V111.493V0H108Z"/>
</mask>
<path fill-rule="evenodd" clip-rule="evenodd" d="M108 0H644V114.507L590 168.747L536 226L0 226V111.493V0H108Z" fill="#11041C"/>
<path d="M644 0H645V-1H644V0ZM644 114.507L644.709 115.212L645 114.92V114.507H644ZM590 168.747L589.291 168.041L589.282 168.051L589.273 168.061L590 168.747ZM536 226L536 227L536.431 227L536.727 226.686L536 226ZM0 226H-1V227L-2.84679e-08 227L0 226ZM0 0V-1H-1V0H0ZM644 -1H108V1H644V-1ZM645 114.507V0H643V114.507H645ZM590.709 169.452L644.709 115.212L643.291 113.801L589.291 168.041L590.709 169.452ZM536.727 226.686L590.727 169.433L589.273 168.061L535.273 225.314L536.727 226.686ZM-2.84679e-08 227L536 227L536 225L2.84679e-08 225L-2.84679e-08 227ZM-1 111.493V226H1V111.493H-1ZM-1 0V111.493H1V0H-1ZM108 -1H0V1H108V-1Z" fill="url(#paint0_linear_1110_784)" mask="url(#path-1-inside-1_1110_784)"/>
<defs>
<linearGradient id="paint0_linear_1110_784" x1="-4.62092e-07" y1="24.4833" x2="649.623" y2="205.862" gradientUnits="userSpaceOnUse">
<stop stop-color="#480FEB"/>
<stop offset="1" stop-color="#B82FFF"/>
</linearGradient>
</defs>
</svg>
