<svg width="427" height="990" viewBox="0 0 427 990" fill="none" xmlns="http://www.w3.org/2000/svg">
<mask id="mask0_1202_98" style="mask-type:alpha" maskUnits="userSpaceOnUse" x="0" y="0" width="427" height="990">
<rect width="427" height="990" fill="#D9D9D9"/>
</mask>
<g mask="url(#mask0_1202_98)">
<g opacity="0.05">
<path d="M-250 -1080L256.083 990.103" stroke="white" stroke-width="4" stroke-miterlimit="10"/>
<path d="M-229.32 -1080L276.745 990.103" stroke="white" stroke-width="4" stroke-miterlimit="10"/>
<path d="M-208.664 -1080L297.402 990.103" stroke="white" stroke-width="4" stroke-miterlimit="10"/>
<path d="M-188 -1080L318.066 990.103" stroke="white" stroke-width="4" stroke-miterlimit="10"/>
<path d="M-167.344 -1080L338.722 990.103" stroke="white" stroke-width="4" stroke-miterlimit="10"/>
<path d="M-146.68 -1080L359.403 990.103" stroke="white" stroke-width="4" stroke-miterlimit="10"/>
<path d="M-126.016 -1080L380.067 990.103" stroke="white" stroke-width="4" stroke-miterlimit="10"/>
<path d="M-105.344 -1080L400.722 990.103" stroke="white" stroke-width="4" stroke-miterlimit="10"/>
<path d="M-84.6797 -1080L421.386 990.103" stroke="white" stroke-width="4" stroke-miterlimit="10"/>
<path d="M-64.0234 -1080L442.042 990.103" stroke="white" stroke-width="4" stroke-miterlimit="10"/>
<path d="M-43.3594 -1080L462.706 990.103" stroke="white" stroke-width="4" stroke-miterlimit="10"/>
<path d="M-22.6953 -1080L483.388 990.103" stroke="white" stroke-width="4" stroke-miterlimit="10"/>
<path d="M-2.02344 -1080L504.042 990.103" stroke="white" stroke-width="4" stroke-miterlimit="10"/>
<path d="M18.6406 -1080L524.706 990.103" stroke="white" stroke-width="4" stroke-miterlimit="10"/>
<path d="M39.3047 -1080L545.37 990.103" stroke="white" stroke-width="4" stroke-miterlimit="10"/>
<path d="M59.9609 -1080L566.027 990.103" stroke="white" stroke-width="4" stroke-miterlimit="10"/>
<path d="M80.625 -1080L586.708 990.103" stroke="white" stroke-width="4" stroke-miterlimit="10"/>
<path d="M101.281 -1080L607.364 990.103" stroke="white" stroke-width="4" stroke-miterlimit="10"/>
<path d="M121.961 -1080L628.027 990.103" stroke="white" stroke-width="4" stroke-miterlimit="10"/>
<path d="M142.625 -1080L648.691 990.103" stroke="white" stroke-width="4" stroke-miterlimit="10"/>
<path d="M163.281 -1080L669.347 990.103" stroke="white" stroke-width="4" stroke-miterlimit="10"/>
<path d="M183.945 -1080L690.011 990.103" stroke="white" stroke-width="4" stroke-miterlimit="10"/>
<path d="M204.602 -1080L710.684 990.103" stroke="white" stroke-width="4" stroke-miterlimit="10"/>
<path d="M225.266 -1080L731.349 990.103" stroke="white" stroke-width="4" stroke-miterlimit="10"/>
<path d="M245.945 -1080L752.011 990.103" stroke="white" stroke-width="4" stroke-miterlimit="10"/>
<path d="M266.602 -1080L772.667 990.103" stroke="white" stroke-width="4" stroke-miterlimit="10"/>
<path d="M287.266 -1080L793.331 990.103" stroke="white" stroke-width="4" stroke-miterlimit="10"/>
<path d="M307.922 -1080L813.988 990.103" stroke="white" stroke-width="4" stroke-miterlimit="10"/>
<path d="M328.586 -1080L834.669 990.103" stroke="white" stroke-width="4" stroke-miterlimit="10"/>
<path d="M349.266 -1080L855.331 990.103" stroke="white" stroke-width="4" stroke-miterlimit="10"/>
<path d="M369.922 -1080L875.988 990.103" stroke="white" stroke-width="4" stroke-miterlimit="10"/>
<path d="M390.586 -1080L896.652 990.103" stroke="white" stroke-width="4" stroke-miterlimit="10"/>
<path d="M411.242 -1080L917.308 990.103" stroke="white" stroke-width="4" stroke-miterlimit="10"/>
</g>
</g>
</svg>
