<svg width="420" height="146" viewBox="0 0 420 146" fill="none" xmlns="http://www.w3.org/2000/svg">
<mask id="path-1-inside-1_1150_4793" fill="white">
<path fill-rule="evenodd" clip-rule="evenodd" d="M349.565 146H70.4348L35.2174 109.013L0 73.9733V0H420V73.9733L384.783 109.013L349.565 146Z"/>
</mask>
<path fill-rule="evenodd" clip-rule="evenodd" d="M349.565 146H70.4348L35.2174 109.013L0 73.9733V0H420V73.9733L384.783 109.013L349.565 146Z" fill="#11041C" fill-opacity="0.5"/>
<path d="M70.4348 146L69.7106 146.69L70.0061 147H70.4348V146ZM349.565 146V147H349.994L350.289 146.69L349.565 146ZM35.2174 109.013L35.9416 108.324L35.9323 108.314L35.9227 108.304L35.2174 109.013ZM0 73.9733H-1V74.389L-0.705319 74.6822L0 73.9733ZM0 0V-1H-1V0H0ZM420 0H421V-1H420V0ZM420 73.9733L420.705 74.6822L421 74.389V73.9733H420ZM384.783 109.013L384.077 108.304L384.068 108.314L384.058 108.324L384.783 109.013ZM70.4348 147H349.565V145H70.4348V147ZM71.159 145.31L35.9416 108.324L34.4932 109.703L69.7106 146.69L71.159 145.31ZM35.9227 108.304L0.705319 73.2644L-0.705319 74.6822L34.5121 109.722L35.9227 108.304ZM-1 0V73.9733H1V0H-1ZM420 -1H0V1H420V-1ZM421 73.9733V0H419V73.9733H421ZM385.488 109.722L420.705 74.6822L419.295 73.2644L384.077 108.304L385.488 109.722ZM350.289 146.69L385.507 109.703L384.058 108.324L348.841 145.31L350.289 146.69Z" fill="url(#paint0_linear_1150_4793)" mask="url(#path-1-inside-1_1150_4793)"/>
<defs>
<linearGradient id="paint0_linear_1150_4793" x1="-3.01364e-07" y1="15.8167" x2="423.081" y2="135.069" gradientUnits="userSpaceOnUse">
<stop stop-color="#480FEB"/>
<stop offset="1" stop-color="#B82FFF"/>
</linearGradient>
</defs>
</svg>
