<svg width="12" height="12" viewBox="0 0 12 12" fill="none" xmlns="http://www.w3.org/2000/svg">
<g clip-path="url(#clip0_461_3)">
<path d="M4.71094 0H9.1875C10.2214 0 11.0625 0.841095 11.0625 1.875L11.0625 8.22656C11.0625 9.26047 10.2214 10.1016 9.1875 10.1016H4.71094C3.67703 10.1016 2.83594 9.26047 2.83594 8.22656L2.83594 1.875C2.83594 0.841095 3.67703 0 4.71094 0ZM9.1875 9.16406C9.70441 9.16406 10.125 8.74347 10.125 8.22656L10.125 1.875C10.125 1.35809 9.70441 0.9375 9.1875 0.9375H4.71094C4.19403 0.9375 3.77344 1.35809 3.77344 1.875V8.22656C3.77344 8.74347 4.19403 9.16406 4.71094 9.16406H9.1875ZM0.960938 3.04687L0.960938 10.125C0.960938 11.1589 1.80203 12 2.83594 12L8.03906 12C8.29797 12 8.50781 11.7902 8.50781 11.5312C8.50781 11.2723 8.29797 11.0625 8.03906 11.0625L2.83594 11.0625C2.31903 11.0625 1.89844 10.6419 1.89844 10.125L1.89844 3.04687C1.89844 2.78796 1.6886 2.57812 1.42969 2.57812C1.17078 2.57812 0.960938 2.78796 0.960938 3.04687Z" fill="#BEA1F8"/>
</g>
<defs>
<clipPath id="clip0_461_3">
<rect width="12" height="12" fill="white" transform="translate(12 12) rotate(-180)"/>
</clipPath>
</defs>
</svg>
