<svg width="24" height="24" viewBox="0 0 24 24" fill="none" xmlns="http://www.w3.org/2000/svg">
<path d="M20.4562 5.98994C17.7061 3.93194 15.0711 3.98978 15.0711 3.98978L14.8018 4.29746C18.0713 5.27834 19.5908 6.72074 19.5908 6.72074C14.9129 4.1453 8.95469 4.16378 4.08917 6.72074C4.08917 6.72074 5.66621 5.2013 9.12821 4.22042L8.93597 3.98954C8.93597 3.98954 6.32021 3.93194 3.55085 5.9897C3.55085 5.9897 0.78125 10.9709 0.78125 17.1063C0.78125 17.1063 2.39693 19.8759 6.64733 20.0105C6.64733 20.0105 7.35893 19.1643 7.93589 18.4335C5.49341 17.7027 4.57013 16.1832 4.57013 16.1832C6.10469 17.1435 7.65629 17.7444 9.58997 18.1258C12.7359 18.7733 16.6491 18.1075 19.5718 16.1832C19.5718 16.1832 18.6101 17.7411 16.0906 18.4527C16.6676 19.1643 17.36 19.9913 17.36 19.9913C21.6104 19.8567 23.2258 17.0871 23.2258 17.1065C23.2256 10.9711 20.4562 5.98994 20.4562 5.98994ZM8.41661 15.3178C7.33949 15.3178 6.45485 14.3753 6.45485 13.2022C6.53357 10.3925 10.3193 10.4011 10.3784 13.2022C10.3784 14.3753 9.51269 15.3178 8.41661 15.3178ZM15.4364 15.3178C14.3592 15.3178 13.4746 14.3753 13.4746 13.2022C13.561 10.398 17.2995 10.3968 17.3981 13.2022C17.3981 14.3753 16.5327 15.3178 15.4364 15.3178Z" fill="white"/>
</svg>
