<svg width="26" height="18" viewBox="0 0 26 18" fill="none" xmlns="http://www.w3.org/2000/svg">
<path d="M22.529 2.49238C20.7859 1.09786 18.6942 0.40064 16.4862 0.284424L16.1376 0.633074C18.1131 1.09786 19.8563 2.02752 21.4832 3.30582C19.5076 2.25995 17.2997 1.56273 14.9755 1.33029C14.2783 1.21408 13.6972 1.21408 13 1.21408C12.3028 1.21408 11.7217 1.21408 11.0245 1.33029C8.70028 1.56273 6.49232 2.25995 4.5168 3.30582C6.14367 2.02752 7.88684 1.09786 9.86237 0.633074L9.51372 0.284424C7.30576 0.40064 5.21402 1.09786 3.47093 2.49238C1.49539 6.21108 0.449522 10.3946 0.333313 14.6942C2.0764 16.5536 4.5168 17.7157 7.0734 17.7157C7.0734 17.7157 7.88684 16.786 8.46785 15.9725C6.95719 15.6239 5.56267 14.8104 4.63301 13.5322C5.44645 13.997 6.25989 14.4618 7.0734 14.8104C8.11928 15.2753 9.16515 15.5077 10.211 15.7401C11.1407 15.8563 12.0703 15.9725 13 15.9725C13.9296 15.9725 14.8593 15.8563 15.7889 15.7401C16.8348 15.5077 17.8807 15.2753 18.9266 14.8104C19.7401 14.4618 20.5535 13.997 21.3669 13.5322C20.4373 14.8104 19.0428 15.6239 17.5321 15.9725C18.1131 16.786 18.9266 17.7157 18.9266 17.7157C21.4832 17.7157 23.9236 16.5536 25.6666 14.6942C25.5504 10.3946 24.5046 6.21108 22.529 2.49238ZM9.16515 12.6024C8.00306 12.6024 6.95719 11.5566 6.95719 10.2783C6.95719 9.00004 8.00306 7.95417 9.16515 7.95417C10.3272 7.95417 11.3731 9.00004 11.3731 10.2783C11.3731 11.5566 10.3272 12.6024 9.16515 12.6024ZM16.8348 12.6024C15.6727 12.6024 14.6269 11.5566 14.6269 10.2783C14.6269 9.00004 15.6727 7.95417 16.8348 7.95417C17.9969 7.95417 19.0428 9.00004 19.0428 10.2783C19.0428 11.5566 17.9969 12.6024 16.8348 12.6024Z" fill="white"/>
</svg>
