<svg width="38" height="38" viewBox="0 0 38 38" fill="none" xmlns="http://www.w3.org/2000/svg">
<g clip-path="url(#clip0_1147_4421)">
<path d="M38 19C38 8.50659 29.4934 0 19 0C8.50659 0 0 8.50659 0 19C0 29.4934 8.50659 38 19 38C29.4934 38 38 29.4934 38 19Z" fill="#419FD9"/>
<path d="M38 19C38 8.50659 29.4934 0 19 0C8.50659 0 0 8.50659 0 19C0 29.4934 8.50659 38 19 38C29.4934 38 38 29.4934 38 19Z" fill="url(#paint0_linear_1147_4421)"/>
<path d="M8.54002 18.5808C14.0653 16.123 17.7496 14.5026 19.5932 13.7196C24.8567 11.4843 25.9504 11.096 26.6633 11.0831C26.8201 11.0804 27.1706 11.1201 27.3978 11.3082C27.5895 11.4671 27.6422 11.6817 27.6675 11.8323C27.6927 11.9829 27.7242 12.326 27.6991 12.5941C27.4139 15.6541 26.1798 23.0798 25.5518 26.507C25.2861 27.9572 24.763 28.4434 24.2566 28.491C23.1559 28.5944 22.3201 27.7484 21.2541 27.0348C19.5859 25.9184 18.6436 25.2233 17.0243 24.1339C15.1531 22.8748 16.3661 22.1829 17.4326 21.0519C17.7116 20.756 22.5612 16.2522 22.655 15.8437C22.6668 15.7925 22.6777 15.602 22.5669 15.5015C22.456 15.401 22.2925 15.4353 22.1744 15.4626C22.0071 15.5014 19.3422 17.2999 14.1798 20.8579C13.4233 21.3883 12.7382 21.6466 12.1244 21.633C11.4477 21.6182 10.1459 21.2424 9.17819 20.9213C7.99124 20.5272 7.04784 20.319 7.12999 19.65C7.17278 19.3015 7.64277 18.9451 8.54002 18.5808Z" fill="white"/>
</g>
<defs>
<linearGradient id="paint0_linear_1147_4421" x1="19" y1="0" x2="19" y2="37.7182" gradientUnits="userSpaceOnUse">
<stop stop-color="#2AABEE"/>
<stop offset="1" stop-color="#229ED9"/>
</linearGradient>
<clipPath id="clip0_1147_4421">
<rect width="38" height="38" fill="white"/>
</clipPath>
</defs>
</svg>
