<svg width="38" height="38" viewBox="0 0 38 38" fill="none" xmlns="http://www.w3.org/2000/svg">
<g clip-path="url(#clip0_1147_4415)">
<path d="M38 19C38 8.50659 29.4934 0 19 0C8.50659 0 0 8.50659 0 19C0 29.4934 8.50659 38 19 38C29.4934 38 38 29.4934 38 19Z" fill="#7289DA"/>
<path d="M28.5317 12.4921C26.7886 11.0976 24.6968 10.4004 22.4889 10.2842L22.1402 10.6328C24.1157 11.0976 25.8589 12.0273 27.4858 13.3056C25.5103 12.2597 23.3023 11.5625 20.9781 11.3301C20.2809 11.2138 19.6998 11.2138 19.0026 11.2138C18.3054 11.2138 17.7243 11.2138 17.0271 11.3301C14.7029 11.5625 12.4949 12.2597 10.5194 13.3056C12.1463 12.0273 13.8895 11.0976 15.865 10.6328L15.5163 10.2842C13.3084 10.4004 11.2166 11.0976 9.47355 12.4921C7.49802 16.2108 6.45215 20.3943 6.33594 24.6939C8.07903 26.5533 10.5194 27.7154 13.076 27.7154C13.076 27.7154 13.8895 26.7858 14.4705 25.9722C12.9598 25.6237 11.5653 24.8102 10.6356 23.5319C11.4491 23.9967 12.2625 24.4616 13.076 24.8102C14.1219 25.275 15.1678 25.5075 16.2136 25.7399C17.1433 25.856 18.073 25.9722 19.0026 25.9722C19.9323 25.9722 20.8619 25.856 21.7916 25.7399C22.8374 25.5075 23.8833 25.275 24.9292 24.8102C25.7427 24.4616 26.5561 23.9967 27.3696 23.5319C26.4399 24.8102 25.0454 25.6237 23.5347 25.9722C24.1157 26.7858 24.9292 27.7154 24.9292 27.7154C27.4858 27.7154 29.9262 26.5533 31.6693 24.6939C31.5531 20.3943 30.5072 16.2108 28.5317 12.4921ZM15.1678 22.6022C14.0057 22.6022 12.9598 21.5563 12.9598 20.2781C12.9598 18.9998 14.0057 17.9539 15.1678 17.9539C16.3299 17.9539 17.3757 18.9998 17.3757 20.2781C17.3757 21.5563 16.3299 22.6022 15.1678 22.6022ZM22.8374 22.6022C21.6754 22.6022 20.6295 21.5563 20.6295 20.2781C20.6295 18.9998 21.6754 17.9539 22.8374 17.9539C23.9995 17.9539 25.0454 18.9998 25.0454 20.2781C25.0454 21.5563 23.9995 22.6022 22.8374 22.6022Z" fill="white"/>
</g>
<defs>
<clipPath id="clip0_1147_4415">
<rect width="38" height="38" fill="white"/>
</clipPath>
</defs>
</svg>
