<svg width="38" height="38" viewBox="0 0 38 38" fill="none" xmlns="http://www.w3.org/2000/svg">
<g clip-path="url(#clip0_1147_4425)">
<path d="M19 38C29.4934 38 38 29.4934 38 19C38 8.50659 29.4934 0 19 0C8.50659 0 0 8.50659 0 19C0 29.4934 8.50659 38 19 38Z" fill="#2DAAE1"/>
<path d="M31.1853 11.4423C30.2892 11.8399 29.3266 12.1088 28.3145 12.2296C29.3474 11.6111 30.1387 10.631 30.5123 9.46445C29.5311 10.0472 28.4573 10.4575 27.3375 10.6774C26.4262 9.70606 25.1268 9.09961 23.6891 9.09961C20.9295 9.09961 18.6915 11.3367 18.6915 14.0979C18.6915 14.4891 18.7356 14.8708 18.8203 15.2372C14.6662 15.0284 10.9833 13.0386 8.51812 10.015C8.08767 10.7534 7.84128 11.612 7.84128 12.5281C7.84128 14.2619 8.7238 15.7917 10.0648 16.6879C9.27093 16.6633 8.49452 16.449 7.80044 16.063V16.1261C7.80044 18.5481 9.52309 20.5675 11.8098 21.0268C11.3897 21.1419 10.9489 21.2021 10.4928 21.2021C10.1704 21.2021 9.85754 21.1715 9.55192 21.1141C10.188 23.0992 12.0339 24.5441 14.2205 24.585C12.5099 25.9259 10.3544 26.7253 8.01328 26.7253C7.61005 26.7253 7.21154 26.7012 6.82031 26.6541C9.03264 28.0726 11.6594 28.9008 14.4822 28.9008C23.6755 28.9008 28.7033 21.2845 28.7033 14.6796C28.7033 14.4628 28.6986 14.2475 28.6881 14.0331C29.6677 13.3246 30.5133 12.4472 31.1853 11.4423V11.4423Z" fill="white"/>
</g>
<defs>
<clipPath id="clip0_1147_4425">
<rect width="38" height="38" fill="white"/>
</clipPath>
</defs>
</svg>
