<svg width="26" height="20" viewBox="0 0 26 20" fill="none" xmlns="http://www.w3.org/2000/svg">
<path d="M25.1825 2.44225C24.2863 2.83993 23.3238 3.10877 22.3117 3.22961C23.3446 2.61109 24.1359 1.63096 24.5095 0.464448C23.5283 1.04721 22.4545 1.45747 21.3347 1.67742C20.4234 0.706062 19.124 0.0996094 17.6863 0.0996094C14.9267 0.0996094 12.6887 2.33671 12.6887 5.09787C12.6887 5.48909 12.7328 5.87077 12.8175 6.23722C8.66337 6.02845 4.98047 4.03858 2.51531 1.01496C2.08486 1.75342 1.83847 2.612 1.83847 3.52806C1.83847 5.26193 2.72099 6.79174 4.06196 7.68787C3.26812 7.66327 2.49172 7.449 1.79763 7.06296V7.12612C1.79763 9.54806 3.52028 11.5675 5.80699 12.0268C5.38692 12.1419 4.94608 12.2021 4.49002 12.2021C4.16757 12.2021 3.85473 12.1715 3.54912 12.1141C4.18518 14.0992 6.03112 15.5441 8.2177 15.585C6.50705 16.9259 4.35157 17.7253 2.01047 17.7253C1.60725 17.7253 1.20873 17.7012 0.817505 17.6541C3.02983 19.0726 5.6566 19.9008 8.47937 19.9008C17.6727 19.9008 22.7005 12.2845 22.7005 5.67961C22.7005 5.46277 22.6958 5.24755 22.6853 5.03309C23.6649 4.32455 24.5105 3.44725 25.1825 2.44225Z" fill="white"/>
</svg>
