<svg width="21" height="18" viewBox="0 0 21 18" fill="none" xmlns="http://www.w3.org/2000/svg">
<path d="M1.54002 7.58101C7.0653 5.12321 10.7496 3.50282 12.5932 2.71986C17.8567 0.484593 18.9504 0.0962812 19.6633 0.083377C19.8201 0.0806854 20.1706 0.120348 20.3978 0.308448C20.5895 0.467335 20.6422 0.681956 20.6675 0.832531C20.6927 0.983185 20.7242 1.32629 20.6991 1.59435C20.4139 4.6543 19.1798 12.0801 18.5518 15.5073C18.2861 16.9574 17.763 17.4437 17.2566 17.4913C16.1559 17.5947 15.3201 16.7486 14.2541 16.0351C12.5859 14.9187 11.6436 14.2236 10.0243 13.1342C8.15305 11.8751 9.36612 11.1831 10.4326 10.0521C10.7116 9.7562 15.5612 5.25241 15.655 4.84391C15.6668 4.79276 15.6777 4.60229 15.5669 4.50175C15.456 4.40121 15.2925 4.43556 15.1744 4.46288C15.0071 4.50167 12.3422 6.3001 7.17978 9.85816C6.42334 10.3885 5.73823 10.6468 5.12437 10.6333C4.44766 10.6184 3.14592 10.2427 2.17819 9.9215C0.99124 9.52748 0.0478427 9.31928 0.129986 8.65024C0.172776 8.30175 0.642772 7.94534 1.54002 7.58101Z" fill="white"/>
</svg>
