<svg width="38" height="38" viewBox="0 0 38 38" fill="none" xmlns="http://www.w3.org/2000/svg">
<g clip-path="url(#clip0_1147_4418)">
<path d="M38 19C38 8.50659 29.4934 0 19 0C8.50659 0 0 8.50659 0 19C0 29.4934 8.50659 38 19 38C29.4934 38 38 29.4934 38 19Z" fill="#292929"/>
<path d="M30.4818 28.2285L28.7644 26.5095C28.5837 26.419 28.4933 26.1476 28.4933 25.9667V12.2143C28.4933 12.0333 28.5837 11.7619 28.7644 11.581L30.4818 9.59049V9.5H24.3354L19.7257 21.1715L14.4832 9.5H8.15614V9.59049L9.78309 11.8524C10.1446 12.2143 10.2351 12.7572 10.2351 13.2095V23.1619C10.3255 23.7048 10.2351 24.3381 9.96391 24.881L7.52344 28.2285V28.319H14.0313V28.2285L11.5909 24.9715C11.3197 24.4285 11.2293 23.8857 11.3197 23.2524V14.2048C11.41 14.3857 11.5005 14.3857 11.5909 14.7476L17.7372 28.5H17.8275L23.7931 13.5715C23.7027 14.1143 23.7027 14.7476 23.7027 15.2V25.8762C23.7027 26.1476 23.6123 26.3285 23.4316 26.5095L21.6238 28.2285V28.319H30.4818V28.2285Z" fill="white"/>
</g>
<defs>
<clipPath id="clip0_1147_4418">
<rect width="38" height="38" fill="white"/>
</clipPath>
</defs>
</svg>
