<svg width="24" height="20" viewBox="0 0 24 20" fill="none" xmlns="http://www.w3.org/2000/svg">
<path d="M23.4791 19.2285L21.7618 17.5095C21.581 17.419 21.4906 17.1476 21.4906 16.9667V3.21431C21.4906 3.03333 21.581 2.76187 21.7618 2.58098L23.4791 0.590487V0.5H17.3328L12.7231 12.1715L7.48059 0.5H1.15351V0.590487L2.78047 2.85236C3.14202 3.21431 3.23243 3.75715 3.23243 4.20951V14.1619C3.32284 14.7048 3.23243 15.3381 2.96128 15.881L0.520813 19.2285V19.319H7.02871V19.2285L4.58824 15.9715C4.31709 15.4285 4.22668 14.8857 4.31709 14.2524V5.2048C4.40742 5.38569 4.49783 5.38569 4.58824 5.74764L10.7346 19.5H10.8249L16.7905 4.57146C16.7001 5.11431 16.7001 5.74764 16.7001 6.2V16.8762C16.7001 17.1476 16.6097 17.3285 16.429 17.5095L14.6212 19.2285V19.319H23.4791V19.2285Z" fill="white"/>
</svg>
