<svg width="235" height="235" viewBox="0 0 235 235" fill="none" xmlns="http://www.w3.org/2000/svg">
<g clip-path="url(#clip0_306_404)">
<path d="M49.2186 11.4767C44.0271 8.27315 36.8237 8.46652 31.0045 7.23696C29.5945 6.78857 28.5951 8.95485 30.1974 9.77491C35.7476 11.8505 42.6052 13.7207 48.4115 14.0146C49.7193 13.8095 50.2573 12.1175 49.2186 11.4767Z" fill="url(#paint0_linear_306_404)"/>
<path d="M83.7849 22.6711C78.9733 18.9211 71.7918 18.3286 66.1411 16.4725C64.7883 15.8732 63.5589 17.9177 65.0623 18.9074C70.3534 21.5752 76.9664 24.1814 82.7062 25.106C84.0285 25.0446 84.7477 23.4213 83.7849 22.6711Z" fill="url(#paint1_linear_306_404)"/>
<path d="M113.014 44.3593C110.905 38.8936 105.312 35.445 100.323 33.558C99.2404 33.0785 98.5212 34.7018 99.6034 35.1813C102.189 36.6505 104.384 38.2703 106.46 40.1607C108.264 41.9313 109.679 43.8525 111.484 45.623C112.055 46.5237 113.466 45.5306 113.014 44.3593Z" fill="url(#paint2_linear_306_404)"/>
<path d="M132.073 78.0478C132.07 75.1334 130.864 72.0101 129.419 69.428C128.364 66.6951 126.648 63.993 125.083 61.6814C124.511 60.7807 123.22 61.5033 123.792 62.404C125.237 64.9862 126.292 67.7191 127.077 70.3321C128.131 73.0649 128.405 76.0992 129.46 78.8321C129.792 80.2736 132.014 79.6401 132.073 78.0478Z" fill="url(#paint3_linear_306_404)"/>
<path d="M130.053 97.2191C129.84 95.5068 127.467 95.7498 127.679 97.4623C127.621 99.0547 127.714 101.038 127.655 102.63C127.357 104.764 126.247 106.537 126.34 108.52C126.251 109.452 127.604 110.051 128.234 109.359C130.905 106.983 130.357 100.914 130.053 97.2191Z" fill="url(#paint4_linear_306_404)"/>
<path d="M122.374 134.274C123.573 131.568 124.771 128.863 125.309 126.188C125.638 124.715 124.015 123.996 123.415 125.349C122.066 127.664 121.107 129.828 120.028 132.263C118.95 134.698 117.33 136.893 117.063 139.688C116.854 140.89 118.748 141.729 119.497 140.767C120.998 138.842 121.686 136.558 122.374 134.274Z" fill="url(#paint5_linear_306_404)"/>
<path d="M105.334 155.206C103.053 157.432 100.772 159.657 97.9503 161.643C95.5186 163.48 92.546 165.075 91.0768 167.661C90.207 168.894 91.9809 170.003 93.0325 169.822C96.0357 168.887 98.5569 166.12 100.837 163.893C103.389 161.787 105.399 159.442 107.138 156.976C108.128 155.473 106.203 153.972 105.334 155.206Z" fill="url(#paint6_linear_306_404)"/>
<path d="M83.929 170.644C81.4669 171.818 78.8845 173.264 76.5421 174.168C75.3708 174.62 73.929 174.952 72.6071 175.014C71.2852 175.075 70.7441 174.836 69.453 175.558C68.5523 176.13 68.614 177.452 69.3058 178.082C71.5008 179.702 74.7441 178.226 77.0866 177.322C79.9393 175.996 82.3706 174.161 84.922 172.055C85.5528 171.363 84.8297 170.072 83.929 170.644Z" fill="url(#paint7_linear_306_404)"/>
<path d="M60.1003 168.178C58.2681 168.661 56.2853 168.753 54.662 168.034C53.3092 167.435 51.8058 166.445 50.2442 167.048C49.4633 167.349 49.1038 168.161 49.4051 168.942C50.9122 172.845 58.001 171.455 60.5834 170.01C61.4843 169.438 61.1523 167.996 60.1003 168.178Z" fill="url(#paint8_linear_306_404)"/>
<path d="M45.3026 154.825C43.2579 153.596 41.0629 151.975 39.2581 150.205C37.3024 148.044 37.0592 145.671 36.6656 142.907C36.3334 141.465 34.5902 141.017 33.6005 142.52C30.0937 149.705 38.693 155.133 44.4636 156.719C45.3949 156.808 46.1142 155.184 45.3026 154.825Z" fill="url(#paint9_linear_306_404)"/>
<path d="M39.6858 130.976C39.3194 125.959 41.6584 122.14 42.7646 117.452C42.9733 116.25 41.35 115.531 40.6002 116.493C37.7509 120.733 36.9461 126.202 37.9735 131.188C38.155 132.24 39.4774 132.178 39.6858 130.976Z" fill="url(#paint10_linear_306_404)"/>
<path d="M61.3843 84.921C54.4768 87.3628 50.3979 93.6475 47.9118 99.9896C47.4323 101.072 49.3262 101.911 49.8056 100.829C52.5933 95.2669 56.7337 90.3046 62.2883 87.2639C63.8505 86.661 62.9464 84.3185 61.3843 84.921Z" fill="url(#paint11_linear_306_404)"/>
<path d="M85.7067 72.3939C79.758 72.6713 73.9327 75.5926 68.919 78.8734C67.6279 79.596 69.0423 81.5172 70.0629 80.6748C75.1074 78.0549 80.6039 76.6062 85.9498 74.7672C87.5115 74.1644 87.0281 72.3321 85.7067 72.3939Z" fill="url(#paint12_linear_306_404)"/>
<path d="M108.621 63.7737C104.833 62.0956 99.0658 63.4244 95.4322 65.0511C93.8706 65.6538 94.7747 67.9963 96.3363 67.3936C98.2884 66.6401 100.391 66.2771 102.374 66.1846C104.357 66.0922 106.49 66.3901 108.593 66.0271C109.645 65.8456 109.432 64.1332 108.621 63.7737Z" fill="url(#paint13_linear_306_404)"/>
<path d="M149.909 68.4726C147.744 67.5137 145.22 67.3664 142.936 66.6781C139.991 66.0205 137.166 65.0925 134.251 65.0959C132.659 65.0377 132.361 67.1712 133.833 67.5C136.508 68.0377 139.333 68.9657 141.888 69.7739C144.172 70.4623 146.878 71.6609 149.371 71.1472C150.964 71.2054 151.261 69.0717 149.909 68.4726Z" fill="url(#paint14_linear_306_404)"/>
<path d="M175.186 76.4348C172.028 74.0649 167.34 72.9587 163.433 71.5512C162.08 70.9519 161.241 72.8457 162.594 73.4451C166.261 75.3937 169.96 78.0033 174.107 78.8697C175.579 79.1983 176.418 77.3044 175.186 76.4348Z" fill="url(#paint15_linear_306_404)"/>
<path d="M199.748 88.9346C198.094 87.5545 196.08 86.986 194.186 86.1468C192.292 85.3079 190.127 84.3488 188.114 83.7803C186.761 83.181 185.802 85.3454 187.155 85.9447C189.049 86.7838 191.214 87.7429 192.987 88.8522C194.881 89.6913 196.655 90.8009 198.789 91.099C199.871 91.5784 200.59 89.9552 199.748 88.9346Z" fill="url(#paint16_linear_306_404)"/>
<path d="M221.843 99.6946C219.884 94.6192 217.805 89.8144 215.337 85.1605C213.59 81.7975 211.329 75.9412 207.692 74.6535C206.34 74.0542 204.538 75.198 204.751 76.9104C205.175 80.335 208.244 83.6364 209.96 86.3384C211.977 89.8213 213.754 93.8453 215.532 97.8692C209.162 97.6364 202.432 98.2152 196.093 98.6433C194.11 98.7357 193.874 102.191 196.008 102.489C203.731 103.322 211.6 101.63 219.234 103.393C220.977 103.842 222.327 101.527 221.843 99.6946Z" fill="url(#paint17_linear_306_404)"/>
</g>
<defs>
<linearGradient id="paint0_linear_306_404" x1="30.2773" y1="5.48777" x2="45.9383" y2="19.0672" gradientUnits="userSpaceOnUse">
<stop stop-color="#480FEB"/>
<stop offset="1" stop-color="#B82FFF"/>
</linearGradient>
<linearGradient id="paint1_linear_306_404" x1="65.6087" y1="14.6545" x2="79.6973" y2="29.8591" gradientUnits="userSpaceOnUse">
<stop stop-color="#480FEB"/>
<stop offset="1" stop-color="#B82FFF"/>
</linearGradient>
<linearGradient id="paint2_linear_306_404" x1="99.2381" y1="33.8143" x2="113.549" y2="45.0133" gradientUnits="userSpaceOnUse">
<stop stop-color="#480FEB"/>
<stop offset="1" stop-color="#B82FFF"/>
</linearGradient>
<linearGradient id="paint3_linear_306_404" x1="123.365" y1="62.4615" x2="136.929" y2="70.1206" gradientUnits="userSpaceOnUse">
<stop stop-color="#480FEB"/>
<stop offset="1" stop-color="#B82FFF"/>
</linearGradient>
<linearGradient id="paint4_linear_306_404" x1="127.658" y1="96.9763" x2="133.44" y2="99.8499" gradientUnits="userSpaceOnUse">
<stop stop-color="#480FEB"/>
<stop offset="1" stop-color="#B82FFF"/>
</linearGradient>
<linearGradient id="paint5_linear_306_404" x1="122.642" y1="125.887" x2="126.085" y2="127.493" gradientUnits="userSpaceOnUse">
<stop stop-color="#480FEB"/>
<stop offset="1" stop-color="#B82FFF"/>
</linearGradient>
<linearGradient id="paint6_linear_306_404" x1="97.4879" y1="153.119" x2="107.57" y2="158.233" gradientUnits="userSpaceOnUse">
<stop stop-color="#480FEB"/>
<stop offset="1" stop-color="#B82FFF"/>
</linearGradient>
<linearGradient id="paint7_linear_306_404" x1="73.0012" y1="166.961" x2="85.2654" y2="173.878" gradientUnits="userSpaceOnUse">
<stop stop-color="#480FEB"/>
<stop offset="1" stop-color="#B82FFF"/>
</linearGradient>
<linearGradient id="paint8_linear_306_404" x1="50.8288" y1="164.632" x2="60.8496" y2="171.387" gradientUnits="userSpaceOnUse">
<stop stop-color="#480FEB"/>
<stop offset="1" stop-color="#B82FFF"/>
</linearGradient>
<linearGradient id="paint9_linear_306_404" x1="33.7853" y1="142.087" x2="48.5851" y2="151.57" gradientUnits="userSpaceOnUse">
<stop stop-color="#480FEB"/>
<stop offset="1" stop-color="#B82FFF"/>
</linearGradient>
<linearGradient id="paint10_linear_306_404" x1="40.0317" y1="117.145" x2="45.2505" y2="119.666" gradientUnits="userSpaceOnUse">
<stop stop-color="#480FEB"/>
<stop offset="1" stop-color="#B82FFF"/>
</linearGradient>
<linearGradient id="paint11_linear_306_404" x1="54.9224" y1="84.0617" x2="63.133" y2="88.1016" gradientUnits="userSpaceOnUse">
<stop stop-color="#480FEB"/>
<stop offset="1" stop-color="#B82FFF"/>
</linearGradient>
<linearGradient id="paint12_linear_306_404" x1="73.2906" y1="68.4678" x2="87.0534" y2="76.2616" gradientUnits="userSpaceOnUse">
<stop stop-color="#480FEB"/>
<stop offset="1" stop-color="#B82FFF"/>
</linearGradient>
<linearGradient id="paint13_linear_306_404" x1="97.3316" y1="59.8002" x2="109.31" y2="67.3921" gradientUnits="userSpaceOnUse">
<stop stop-color="#480FEB"/>
<stop offset="1" stop-color="#B82FFF"/>
</linearGradient>
<linearGradient id="paint14_linear_306_404" x1="134.538" y1="62.3324" x2="148.584" y2="74.6368" gradientUnits="userSpaceOnUse">
<stop stop-color="#480FEB"/>
<stop offset="1" stop-color="#B82FFF"/>
</linearGradient>
<linearGradient id="paint15_linear_306_404" x1="162.543" y1="70.8197" x2="172.736" y2="81.7499" gradientUnits="userSpaceOnUse">
<stop stop-color="#480FEB"/>
<stop offset="1" stop-color="#B82FFF"/>
</linearGradient>
<linearGradient id="paint16_linear_306_404" x1="187.113" y1="83.3004" x2="196.677" y2="94.2251" gradientUnits="userSpaceOnUse">
<stop stop-color="#480FEB"/>
<stop offset="1" stop-color="#B82FFF"/>
</linearGradient>
<linearGradient id="paint17_linear_306_404" x1="204.467" y1="76.7956" x2="229.062" y2="90.2512" gradientUnits="userSpaceOnUse">
<stop stop-color="#480FEB"/>
<stop offset="1" stop-color="#B82FFF"/>
</linearGradient>
<clipPath id="clip0_306_404">
<rect width="178" height="178" fill="white" transform="translate(72.1016) rotate(23.895)"/>
</clipPath>
</defs>
</svg>
