<svg width="455" height="480" viewBox="0 0 455 480" fill="none" xmlns="http://www.w3.org/2000/svg">
<g clip-path="url(#clip0_1147_4283)">
<path d="M372.035 200.069C342.598 144.636 283.066 147.869 283.066 147.869C283.066 147.869 223.561 144.557 194.044 199.938C162.954 258.262 199.344 301.762 205.641 314.931C211.964 328.099 228.467 353.437 228.467 366.579C228.467 379.747 228.362 390.156 237.151 395.912L282.909 395.938L328.666 395.964C337.455 390.234 337.403 379.8 337.403 366.631C337.403 353.489 353.958 328.151 360.307 315.009C366.604 301.894 403.047 258.42 372.035 200.069Z" fill="url(#paint0_linear_1147_4283)"/>
<path d="M365.164 199.776C364.823 199.145 364.482 198.593 364.141 197.962C391.033 254.052 356.322 295.66 350.156 308.487C343.833 321.629 327.278 346.966 327.278 360.108C327.278 367.074 327.278 380.163 325.992 391.807C330.557 385.762 330.505 376.957 330.531 366.364C330.531 353.222 347.087 327.884 353.436 314.742C359.759 301.6 396.176 258.126 365.164 199.776Z" fill="url(#paint1_linear_1147_4283)"/>
<path d="M197.615 199.673C197.956 199.042 198.297 198.49 198.638 197.886C171.666 253.95 206.299 295.584 212.465 308.41C218.788 321.579 235.291 346.917 235.291 360.059C235.291 367.024 235.265 380.113 236.55 391.757C231.985 385.712 232.037 376.907 232.037 366.314C232.037 353.146 215.534 327.808 209.211 314.666C202.914 301.498 166.524 257.971 197.615 199.673Z" fill="url(#paint2_linear_1147_4283)"/>
<path opacity="0.8" d="M348.055 186.666C348.055 201.726 320.296 213.896 286.083 213.896C251.87 213.87 224.138 201.648 224.164 186.587C224.164 171.526 251.923 159.33 286.109 159.356C320.349 159.409 348.081 171.631 348.055 186.666Z" fill="white"/>
<path d="M294.27 388.897C294.217 388.897 294.165 388.897 294.112 388.897C292.512 388.818 291.305 387.452 291.384 385.848C291.515 383.64 293.693 346.238 301.223 319.192C295.844 319.691 290.203 319.849 284.483 319.665C278.764 319.875 273.123 319.691 267.744 319.192C275.248 346.238 277.452 383.667 277.583 385.848C277.662 387.452 276.455 388.818 274.855 388.897C273.28 388.976 271.89 387.767 271.811 386.164C270.998 371.813 267.875 340.035 261.552 318.456C247.437 316.406 235.657 312.043 229.543 306.129C226.605 303.29 225.109 300.267 225.109 297.113C225.109 292.119 227.681 287.835 231.852 285.995C235.473 284.365 243.37 283.314 255.728 294.38C259.821 298.06 263.179 304.867 265.934 313.199C271.549 313.83 277.741 314.093 284.378 313.856C284.457 313.856 284.51 313.856 284.588 313.856C291.226 314.093 297.418 313.83 303.033 313.199C305.788 304.867 309.146 298.06 313.239 294.38C325.57 283.314 333.494 284.365 337.115 285.995C341.26 287.861 343.857 292.119 343.857 297.113C343.857 300.267 342.362 303.29 339.423 306.129C333.31 312.043 321.556 316.406 307.414 318.456C301.091 340.035 297.969 371.813 297.182 386.164C297.051 387.715 295.792 388.897 294.27 388.897ZM332.051 290.779C329.139 290.779 324.285 292.224 317.07 298.717C314.157 301.345 311.612 306.155 309.382 312.305C322.055 310.124 331.185 306.024 335.383 301.976C336.59 300.793 338.033 299.006 338.033 297.14C338.033 295.037 337.167 292.382 334.727 291.304C334.176 291.042 333.284 290.779 332.051 290.779ZM236.89 290.779C235.657 290.779 234.765 291.042 234.214 291.304C231.774 292.382 230.908 295.037 230.908 297.14C230.908 299.032 232.351 300.819 233.558 301.976C237.756 306.024 246.886 310.124 259.558 312.305C257.328 306.155 254.783 301.319 251.871 298.717C244.63 292.224 239.776 290.779 236.89 290.779Z" fill="#272425"/>
<g opacity="0.5">
<path opacity="0.8" d="M325.618 412.843C324.962 415.576 322.155 417.81 319.348 417.81H246.409C243.602 417.81 240.795 415.576 240.139 412.843L239.614 410.635C238.958 407.901 240.716 405.667 243.523 405.667H322.208C325.015 405.667 326.773 407.901 326.117 410.635L325.618 412.843Z" fill="#5C14EE"/>
</g>
<g opacity="0.6">
<path d="M322.755 431.321C322.099 434.055 319.292 436.289 316.485 436.289H249.292C246.485 436.289 243.677 434.055 243.021 431.321L242.497 429.113C241.841 426.38 243.599 424.146 246.406 424.146H319.345C322.152 424.146 323.91 426.38 323.254 429.113L322.755 431.321Z" fill="#5C14EE"/>
</g>
<g opacity="0.8">
<path d="M316.985 449.77C316.329 452.504 313.521 454.738 310.714 454.738H255.065C252.258 454.738 249.451 452.504 248.795 449.77L248.27 447.562C247.614 444.829 249.372 442.595 252.179 442.595H313.6C316.407 442.595 318.165 444.829 317.509 447.562L316.985 449.77Z" fill="#5C14EE"/>
</g>
<path d="M313.891 462.413L305.941 475.529C304.445 477.973 300.72 479.997 297.676 479.997L268.16 479.971C265.116 479.971 261.391 477.947 259.895 475.502L251.945 462.387L313.891 462.413Z" fill="#5C14EE"/>
<path d="M352.411 426.64C351.834 426.64 351.283 426.299 351.046 425.747C350.705 424.984 351.046 424.091 351.807 423.749C416.14 395.047 456.256 328.443 451.639 257.975C448.648 212.399 427.999 170.844 393.524 140.959C392.894 140.407 392.815 139.46 393.366 138.83C393.917 138.199 394.862 138.146 395.492 138.672C430.597 169.083 451.612 211.374 454.656 257.765C459.352 329.468 418.528 397.281 353.04 426.483C352.83 426.614 352.621 426.64 352.411 426.64Z" fill="#DCB0FF"/>
<path d="M220.442 429.479C220.258 429.479 220.074 429.452 219.891 429.373C158.286 404.982 115.678 346.447 111.349 280.264C108.331 234.319 123.365 189.952 153.643 155.362C183.92 120.746 225.873 100.06 271.708 97.0637C300.779 95.1713 329.981 100.691 356.191 113.071C356.952 113.412 357.267 114.332 356.9 115.068C356.532 115.831 355.64 116.146 354.906 115.778C329.167 103.608 300.464 98.194 271.918 100.06C226.87 103.004 185.678 123.348 155.925 157.333C126.146 191.345 111.401 234.924 114.34 280.08C118.59 345.107 160.464 402.59 220.993 426.561C221.753 426.876 222.147 427.744 221.832 428.506C221.622 429.111 221.045 429.479 220.442 429.479Z" fill="#DCB0FF"/>
<path d="M71.6672 411.239C74.0547 411.082 76.3898 412.869 76.8621 415.208L78.069 419.782C78.8298 422.042 77.7016 424.776 75.5502 425.827L74.8943 426.169C72.7429 427.22 71.8771 429.848 72.979 431.977L76.3898 437.839C77.7279 439.81 80.4565 440.336 82.4243 439.022L83.0277 438.627C84.9955 437.287 87.934 437.655 89.5082 439.468L92.8403 442.78C94.6244 444.357 95.018 447.275 93.7061 449.272L93.3126 449.877C92.0008 451.874 92.5255 454.582 94.5195 455.922L100.37 459.287C102.496 460.364 105.119 459.497 106.169 457.342L106.484 456.684C107.533 454.529 110.262 453.399 112.518 454.161L117.057 455.344C119.392 455.817 121.202 458.13 121.045 460.522L120.993 461.258C120.835 463.65 122.672 465.805 125.033 466.042C125.033 466.042 125.715 466.12 128.286 466.12C130.963 466.12 131.802 466.042 131.802 466.042C134.19 465.805 136 463.623 135.843 461.258L135.79 460.522C135.633 458.13 137.417 455.791 139.752 455.318L144.291 454.109C146.547 453.346 149.276 454.477 150.325 456.632L150.666 457.315C151.716 459.471 154.34 460.338 156.465 459.234L162.316 455.817C164.283 454.477 164.834 451.743 163.496 449.772L163.103 449.193C161.765 447.196 162.132 444.278 163.942 442.701L167.248 439.363C168.822 437.576 171.735 437.182 173.729 438.496L174.306 438.89C176.3 440.231 179.002 439.679 180.34 437.681L183.725 431.82C184.801 429.691 183.935 427.062 181.783 426.011L181.101 425.669C178.95 424.618 177.822 421.884 178.582 419.624L179.789 415.077C180.235 412.737 182.57 410.924 184.958 411.082L185.693 411.134C188.08 411.292 190.232 409.478 190.468 407.086C190.468 407.086 190.546 406.403 190.546 403.827C190.546 401.146 190.468 400.279 190.468 400.279C190.232 397.887 188.054 396.073 185.666 396.257L184.932 396.31C182.544 396.468 180.209 394.68 179.737 392.341L178.53 387.794C177.769 385.533 178.897 382.8 181.049 381.749L181.705 381.407C183.856 380.355 184.696 377.727 183.62 375.598L180.209 369.737C178.871 367.765 176.142 367.213 174.175 368.554L173.571 368.948C171.577 370.289 168.665 369.921 167.091 368.107L163.759 364.795C161.975 363.218 161.581 360.301 162.893 358.303L163.286 357.699C164.624 355.701 164.073 352.994 162.079 351.653L156.229 348.263C154.103 347.185 151.48 348.052 150.43 350.208L150.115 350.865C149.066 353.02 146.337 354.15 144.081 353.388L139.516 352.205C137.181 351.758 135.37 349.419 135.528 347.027L135.58 346.291C135.738 343.899 133.927 341.744 131.54 341.508C131.54 341.508 130.858 341.429 128.26 341.429C125.61 341.429 124.744 341.508 124.744 341.508C122.357 341.77 120.573 343.926 120.73 346.318L120.783 347.054C120.94 349.445 119.182 351.785 116.821 352.231L112.256 353.441C109.999 354.203 107.271 353.073 106.221 350.917L105.906 350.26C104.857 348.105 102.233 347.238 100.108 348.341L94.2571 351.758C92.2894 353.099 91.7646 355.832 93.0765 357.804L93.47 358.382C94.8081 360.38 94.4408 363.297 92.6304 364.874L89.3246 368.212C87.7504 370 84.8381 370.394 82.8441 369.08L82.2406 368.685C80.2466 367.371 77.5442 367.897 76.2061 369.894L72.8216 375.756C71.7459 377.885 72.6117 380.487 74.7631 381.538L75.4453 381.88C77.5967 382.931 78.7249 385.639 77.964 387.925L76.7571 392.472C76.3111 394.812 73.976 396.625 71.5885 396.468L70.8538 396.415C68.4663 396.257 66.3148 398.071 66.0787 400.463C66.0787 400.463 66 401.172 66 403.748C66 406.403 66.0787 407.27 66.0787 407.27C66.3148 409.662 68.4925 411.45 70.8538 411.292L71.6672 411.239ZM96.5922 403.748C96.5922 386.191 110.786 371.997 128.286 371.997C145.786 371.997 159.981 386.217 159.981 403.748C159.981 421.28 145.786 435.499 128.286 435.499C110.786 435.473 96.5922 421.28 96.5922 403.748Z" fill="url(#paint3_linear_1147_4283)"/>
<path d="M128.283 361.403C104.932 361.403 86.0156 380.354 86.0156 403.747C86.0156 427.114 104.932 446.064 128.283 446.064C151.634 446.064 170.551 427.114 170.551 403.747C170.551 380.354 151.634 361.403 128.283 361.403ZM128.283 439.546C108.553 439.546 92.5486 423.513 92.5486 403.747C92.5486 383.955 108.553 367.948 128.283 367.948C148.04 367.948 164.018 383.981 164.018 403.747C164.044 423.513 148.04 439.546 128.283 439.546Z" fill="#DB97FF"/>
<path d="M128.283 439.311C147.908 439.311 163.807 423.383 163.807 403.722C163.807 384.062 147.908 368.134 128.283 368.134C108.657 368.134 92.7578 384.062 92.7578 403.722C92.7578 423.383 108.684 439.337 128.283 439.311ZM128.283 372.129C145.704 372.129 159.819 386.27 159.819 403.722C159.819 421.175 145.704 435.316 128.283 435.316C110.861 435.316 96.7458 421.175 96.7458 403.722C96.7458 386.296 110.861 372.129 128.283 372.129Z" fill="#B82FFF"/>
<path d="M348.007 461.573C348.427 459.917 350.473 458.34 352.546 458.051L361.886 456.79C363.959 456.5 367.16 457.079 369.022 458.025L372.171 459.655C374.034 460.627 374.768 462.914 373.798 464.78L370.019 472.087C369.049 473.953 366.766 474.689 364.903 473.717L350.604 466.304C348.768 465.358 347.587 463.229 348.007 461.573Z" fill="#41EAAA"/>
<path d="M426.377 474.927C424.855 474.139 423.753 471.799 423.963 469.723L424.803 460.313C424.986 458.237 426.246 455.214 427.584 453.611L429.866 450.877C431.205 449.274 433.618 449.064 435.219 450.43L441.516 455.713C443.116 457.054 443.326 459.472 441.962 461.075L431.598 473.429C430.26 475.032 427.899 475.716 426.377 474.927Z" fill="#41EAAA"/>
<path d="M363.88 407.353C367.947 408.246 374.192 407.169 377.734 404.934L382.141 402.175C385.683 399.94 387.153 395.42 385.421 392.134C383.689 388.822 379.859 388.533 376.894 391.477L375.031 393.317C372.066 396.261 366.294 397.943 362.228 397.049L356.429 395.788C352.336 394.894 348.768 396.34 348.479 398.994C348.191 401.649 351.313 404.566 355.38 405.46L363.88 407.353Z" fill="#FFE1C2"/>
<path d="M365.953 439.762C366.556 435.609 369.128 429.511 371.646 426.2L385.972 407.485C388.517 404.173 393.659 402.938 397.437 404.752L403.996 407.932C407.748 409.746 408.588 413.82 405.833 416.974L392.216 432.587C389.461 435.741 385.867 441.471 384.24 445.308L378.888 457.898C377.261 461.736 372.984 464.049 369.39 463.024C365.795 461.998 363.355 457.767 363.959 453.614L365.953 439.762Z" fill="#5C14EE"/>
<path d="M402.448 448.092C398.774 446.12 395.127 441.126 394.34 437.026L390.379 416.13C389.591 412.03 392.294 407.851 396.361 406.878L405.465 404.696C409.531 403.724 412.864 406.352 412.864 410.532V429.561C412.864 433.74 415.907 438.761 419.606 440.706L431.885 447.172C435.585 449.117 435.086 452.481 433.145 456.082C431.203 459.683 428.527 462.127 424.828 460.156L402.448 448.092Z" fill="#5C14EE"/>
<path d="M399.511 358.281C399.485 368.374 391.273 376.548 381.198 376.496C371.123 376.47 362.989 368.243 363.016 358.149C363.042 348.056 371.254 339.908 381.329 339.935C391.43 339.987 399.564 348.188 399.511 358.281Z" fill="#FFE1C2"/>
<path d="M414.048 407.325C415.544 413.423 411.713 419.363 405.547 420.546L398.437 421.887C392.272 423.043 384.978 419.416 382.197 413.791L370.679 390.503C367.898 384.879 370.574 378.912 376.608 377.282L393.846 372.578C399.88 370.922 406.046 374.575 407.541 380.673L414.048 407.325Z" fill="#DB97FF"/>
<path d="M356.875 390.006C360.521 392.056 366.897 393.397 371.042 392.976L389.172 391.136C393.318 390.716 396.728 386.957 396.755 382.752V380.885C396.755 376.706 393.449 374.104 389.408 375.103L370.99 379.624C366.923 380.623 360.705 379.65 357.137 377.442L352.126 374.367C348.557 372.185 344.648 372.79 343.389 375.734C342.129 378.678 344.097 382.752 347.744 384.828L356.875 390.006Z" fill="#FFE1C2"/>
<path d="M360.18 349.562C360.232 338.181 369.468 329.008 380.802 329.061C392.162 329.113 401.319 338.365 401.267 349.72L360.18 349.562Z" fill="#41EAAA"/>
<path opacity="0.4" d="M401.27 349.65C401.322 338.296 392.139 329.044 380.805 328.991C378.732 328.991 376.712 329.307 374.797 329.885C375.033 329.885 393.32 329.753 392.953 348.862C392.953 348.862 392.927 349.151 392.9 349.624L401.27 349.65Z" fill="#01B36F"/>
<path d="M406.435 352.027C406.435 353.288 405.412 354.313 404.153 354.287L357.241 354.103C355.982 354.103 354.959 353.078 354.985 351.816V350.529C354.985 349.267 356.008 348.242 357.267 348.268L404.179 348.452C405.438 348.452 406.462 349.477 406.462 350.739L406.435 352.027Z" fill="#EDB92B"/>
<path d="M413.673 398.989L378.266 406.936L379.16 410.937L414.568 402.99L413.673 398.989Z" fill="#B82FFF"/>
<path d="M416.807 409.373L380.805 413.892L381.313 417.96L417.316 413.442L416.807 409.373Z" fill="#B82FFF"/>
<path d="M333.391 114.284C335.805 114.126 338.166 115.913 338.665 118.305L339.898 122.958C340.659 125.271 339.53 128.03 337.353 129.108L336.671 129.45C334.493 130.527 333.627 133.182 334.729 135.337L338.192 141.278C339.557 143.275 342.311 143.827 344.332 142.46L344.935 142.066C346.955 140.699 349.894 141.094 351.521 142.907L354.905 146.272C356.716 147.875 357.109 150.845 355.771 152.869L355.377 153.473C354.039 155.497 354.59 158.257 356.584 159.598L362.514 163.014C364.692 164.118 367.315 163.225 368.391 161.043L368.732 160.36C369.808 158.178 372.563 157.022 374.845 157.784L379.463 158.993C381.85 159.466 383.661 161.832 383.503 164.25L383.451 164.986C383.293 167.404 385.13 169.585 387.544 169.848C387.544 169.848 388.226 169.927 390.85 169.927C393.552 169.927 394.418 169.822 394.418 169.822C396.832 169.559 398.668 167.378 398.511 164.959L398.458 164.224C398.301 161.805 400.111 159.44 402.499 158.967L407.09 157.731C409.399 156.969 412.154 158.099 413.23 160.281L413.571 160.964C414.647 163.146 417.296 164.013 419.448 162.909L425.377 159.44C427.371 158.073 427.922 155.313 426.584 153.289L426.191 152.685C424.826 150.661 425.22 147.691 427.03 146.088L430.389 142.697C431.989 140.857 434.954 140.489 436.974 141.829L437.578 142.224C439.598 143.564 442.353 143.039 443.691 141.015L447.128 135.048C448.23 132.867 447.338 130.238 445.16 129.161L444.478 128.819C442.3 127.741 441.146 124.981 441.907 122.695L443.114 118.069C443.586 115.677 445.947 113.863 448.361 114.021L449.122 114.074C451.536 114.231 453.713 112.391 453.976 109.973C453.976 109.973 454.054 109.29 454.054 106.661C454.054 103.954 453.949 103.06 453.949 103.06C453.687 100.642 451.509 98.8024 449.096 98.9602L448.361 99.0127C445.947 99.1704 443.586 97.3568 443.087 94.9913L441.854 90.3653C441.093 88.0523 442.222 85.2924 444.399 84.2148L445.081 83.8731C447.259 82.7954 448.125 80.1407 447.023 77.9854L443.586 72.0452C442.222 70.0214 439.467 69.4957 437.446 70.8625L436.843 71.283C434.823 72.6498 431.884 72.2555 430.258 70.4419L426.873 67.0776C425.036 65.4742 424.669 62.5041 426.007 60.5065L426.401 59.902C427.739 57.8781 427.188 55.1183 425.194 53.7778L419.238 50.3346C417.087 49.2307 414.437 50.1243 413.361 52.3059L413.02 52.9893C411.944 55.1709 409.189 56.3274 406.907 55.5651L402.289 54.3561C399.901 53.8829 398.091 51.5174 398.248 49.0992L398.301 48.337C398.458 45.9189 396.622 43.7373 394.208 43.5007C394.208 43.5007 393.5 43.4219 390.876 43.4219C388.174 43.4219 387.308 43.527 387.308 43.527C384.894 43.7898 383.057 45.9714 383.215 48.3896L383.267 49.1255C383.425 51.5437 381.641 53.9092 379.253 54.3823L374.635 55.6177C372.326 56.3799 369.572 55.2497 368.496 53.0681L368.155 52.411C367.079 50.2295 364.429 49.3621 362.278 50.466L356.348 53.9355C354.328 55.3023 353.803 58.0621 355.168 60.086L355.561 60.6905C356.925 62.7144 356.532 65.6582 354.722 67.2878L351.363 70.6785C349.763 72.4921 346.798 72.8863 344.804 71.5458L344.201 71.1516C342.18 69.8111 339.425 70.3631 338.087 72.3607L334.65 78.3271C333.548 80.4824 334.44 83.1371 336.618 84.2148L337.3 84.5565C339.478 85.6341 340.632 88.3939 339.871 90.6807L338.665 95.3067C338.192 97.6985 335.831 99.5121 333.417 99.3544L332.656 99.3018C330.243 99.1441 328.065 101.01 327.829 103.402C327.829 103.402 327.75 104.112 327.75 106.74C327.75 109.448 327.855 110.315 327.855 110.315C328.117 112.733 330.295 114.573 332.709 114.389L333.391 114.284ZM358.683 106.661C358.683 88.8671 373.087 74.4371 390.823 74.4371C408.586 74.4371 422.99 88.8671 422.99 106.661C422.99 124.456 408.586 138.859 390.823 138.859C373.061 138.859 358.683 124.456 358.683 106.661Z" fill="url(#paint4_linear_1147_4283)"/>
<path d="M390.824 63.7129C367.159 63.7129 347.953 82.9266 347.953 106.661C347.953 130.369 367.159 149.609 390.824 149.609C414.516 149.609 433.695 130.369 433.695 106.661C433.695 82.9528 414.516 63.7129 390.824 63.7129ZM390.824 142.986C370.805 142.986 354.565 126.716 354.565 106.661C354.565 86.5801 370.805 70.3365 390.824 70.3365C410.843 70.3365 427.084 86.6063 427.084 106.661C427.11 126.716 410.869 142.986 390.824 142.986Z" fill="#DB97FF"/>
<path d="M390.846 142.777C410.76 142.777 426.896 126.612 426.896 106.662C426.896 86.7389 410.76 70.5742 390.846 70.5742C370.933 70.5742 354.797 86.7389 354.797 106.662C354.797 126.612 370.933 142.777 390.846 142.777ZM390.846 74.622C408.53 74.622 422.855 88.9731 422.855 106.662C422.855 124.378 408.53 138.729 390.846 138.729C373.163 138.729 358.837 124.378 358.837 106.662C358.837 88.9468 373.163 74.5957 390.846 74.622Z" fill="#B82FFF"/>
<path d="M254.442 45.604C255.99 45.4988 257.511 46.6553 257.826 48.1798L258.613 51.1762C259.112 52.6481 258.377 54.4354 256.987 55.1188L256.541 55.3291C255.15 56.0124 254.573 57.7209 255.281 59.114L257.511 62.9252C258.377 64.2131 260.161 64.5548 261.447 63.6874L261.84 63.4246C263.126 62.5572 265.041 62.7937 266.065 63.9765L268.242 66.1318C269.423 67.1569 269.659 69.0756 268.793 70.3636L268.531 70.7578C267.665 72.0457 268.006 73.8331 269.318 74.7004L273.148 76.9083C274.539 77.618 276.244 77.0397 276.927 75.6467L277.136 75.1998C277.819 73.8068 279.603 73.0445 281.072 73.5439L284.037 74.3325C285.559 74.6216 286.739 76.1461 286.634 77.7231L286.608 78.1962C286.503 79.747 287.71 81.1663 289.258 81.324C289.258 81.324 289.704 81.3766 291.383 81.3766C293.115 81.3766 293.692 81.324 293.692 81.324C295.24 81.1663 296.421 79.747 296.316 78.1962L296.289 77.7231C296.184 76.1723 297.339 74.6479 298.887 74.3325L301.852 73.5439C303.321 73.0445 305.105 73.7805 305.787 75.1735L305.997 75.6204C306.679 77.0134 308.385 77.5917 309.775 76.882L313.58 74.6479C314.865 73.7805 315.206 71.9932 314.34 70.7053L314.078 70.3373C313.212 69.0494 313.448 67.1306 314.629 66.1055L316.807 63.924C317.83 62.7412 319.745 62.5046 321.031 63.372L321.424 63.6348C322.736 64.5022 324.494 64.1605 325.36 62.8463L327.564 59.0088C328.272 57.6158 327.695 55.9073 326.304 55.2239L325.858 55.0137C324.468 54.3303 323.707 52.5429 324.205 51.071L324.993 48.1009C325.281 46.5765 326.803 45.3937 328.377 45.4988L328.849 45.5251C330.397 45.6302 331.814 44.4474 331.972 42.8704C331.972 42.8704 332.024 42.4236 332.024 40.7414C332.024 39.0066 331.972 38.4284 331.972 38.4284C331.814 36.8776 330.397 35.6948 328.849 35.8L328.377 35.8263C326.829 35.9314 325.307 34.7749 324.993 33.2241L324.205 30.254C323.707 28.7821 324.442 26.9948 325.832 26.3114L326.278 26.1012C327.669 25.4178 328.246 23.7093 327.538 22.3162L325.307 18.5051C324.442 17.2171 322.657 16.8754 321.372 17.7428L320.978 18.0057C319.693 18.873 317.777 18.6365 316.754 17.4537L314.577 15.2721C313.396 14.247 313.16 12.3283 314.026 11.0404L314.288 10.6461C315.154 9.35819 314.813 7.57088 313.501 6.7035L309.67 4.49564C308.28 3.78597 306.574 4.36422 305.892 5.75727L305.682 6.2041C305 7.59716 303.216 8.3594 301.747 7.86L298.782 7.07148C297.26 6.78235 296.08 5.25788 296.184 3.68083L296.211 3.20772C296.316 1.65696 295.135 0.237616 293.587 0.0799119C293.587 0.0799119 293.141 0.0273438 291.436 0.0273438C289.704 0.0273438 289.127 0.0799119 289.127 0.0799119C287.579 0.237616 286.398 1.65696 286.503 3.20772L286.529 3.68083C286.634 5.23159 285.48 6.75607 283.958 7.07148L280.993 7.86C279.524 8.3594 277.74 7.62344 277.058 6.2041L276.795 5.78356C276.113 4.3905 274.408 3.81225 273.017 4.52192L269.187 6.75607C267.901 7.62344 267.56 9.41076 268.426 10.6987L268.688 11.0929C269.554 12.3809 269.318 14.2996 268.137 15.3247L265.96 17.5063C264.936 18.689 263.021 18.9256 261.735 18.0582L261.342 17.7954C260.03 16.928 258.272 17.2697 257.406 18.5839L255.202 22.4214C254.494 23.8144 255.071 25.5229 256.462 26.2063L256.908 26.4166C258.298 27.1 259.059 28.8873 258.561 30.3592L257.774 33.3293C257.485 34.8538 255.963 36.0365 254.389 35.9314L253.917 35.9051C252.369 35.8 250.952 37.0091 250.795 38.5598C250.795 38.5598 250.742 39.0329 250.742 40.7151C250.742 42.4499 250.795 43.0018 250.795 43.0018C250.952 44.5526 252.369 45.7354 253.917 45.6302L254.442 45.604ZM270.708 40.6888C270.708 29.229 279.97 19.9507 291.409 19.9507C302.849 19.9507 312.11 29.229 312.11 40.6888C312.11 52.1224 302.849 61.427 291.409 61.4007C279.97 61.427 270.708 52.1487 270.708 40.6888Z" fill="url(#paint5_linear_1147_4283)"/>
<path d="M291.414 13.0625C276.17 13.0625 263.812 25.4423 263.812 40.7134C263.812 55.9844 276.17 68.3379 291.414 68.3379C306.657 68.3379 319.015 55.9581 319.015 40.7134C319.015 25.4423 306.657 13.0625 291.414 13.0625ZM291.414 64.0799C278.531 64.0799 268.089 53.6189 268.089 40.7134C268.089 27.7816 278.531 17.3205 291.414 17.3205C304.296 17.3205 314.765 27.7816 314.765 40.7134C314.765 53.6189 304.296 64.0799 291.414 64.0799Z" fill="#DB97FF"/>
<path d="M291.412 63.9234C304.216 63.9234 314.606 53.5412 314.606 40.6883C314.606 27.8616 304.216 17.4531 291.412 17.4531C278.609 17.4531 268.219 27.8616 268.219 40.6883C268.219 53.5412 278.609 63.9234 291.412 63.9234ZM291.412 20.0815C302.773 20.0815 312.008 29.3072 312.008 40.7145C312.008 52.1218 302.799 61.3476 291.412 61.3476C280.025 61.3476 270.816 52.1218 270.816 40.7145C270.816 29.3072 280.052 20.0552 291.412 20.0815Z" fill="#B82FFF"/>
<path d="M142.147 300.246C142.147 300.246 147.027 297.775 157.916 291.677C168.778 285.553 166.6 271.044 166.6 271.044L135.641 282.057L142.147 300.246Z" fill="url(#paint6_linear_1147_4283)"/>
<path d="M120.291 285.061L109.719 289.007L117.614 310.239L128.186 306.293L120.291 285.061Z" fill="#DB97FF"/>
<path d="M114.131 303.872C114.131 303.872 113.266 303.004 113.266 302.4L124.836 295.724C124.836 295.724 125.781 296.039 125.649 297.196L114.131 303.872Z" fill="#EAC0FF"/>
<path d="M115.389 307.341C115.389 307.341 114.523 306.474 114.523 305.87L126.094 299.193C126.094 299.193 127.038 299.509 126.907 300.639L115.389 307.341Z" fill="#EAC0FF"/>
<path d="M112.71 300.245C112.71 300.245 111.844 299.377 111.844 298.773L123.414 292.097C123.414 292.097 124.359 292.412 124.228 293.569L112.71 300.245Z" fill="#EAC0FF"/>
<path d="M111.241 296.829C111.241 296.829 110.375 295.961 110.375 295.357L121.945 288.681C121.945 288.681 122.89 288.996 122.759 290.153L111.241 296.829Z" fill="#EAC0FF"/>
<path d="M108.645 252.828C108.645 252.828 102.27 277.903 101.483 286.077C100.696 294.252 93.7954 301.112 93.7954 301.112L9.83733 362.695C9.83733 362.695 -5.95727 371.737 2.46477 383.118C10.8868 394.499 23.1657 383.67 23.1657 383.67C23.1657 383.67 87.997 333.573 104.08 321.613C120.163 309.654 138.109 309.812 138.109 309.812L145.692 304.187L130.842 263.289L132.285 259.294L157.971 248.071C146.007 236.873 129.714 238.95 120.531 242.078C111.322 245.206 108.645 252.828 108.645 252.828ZM8.63043 369.661C12.0937 367.111 16.9738 367.821 19.5187 371.29C22.09 374.76 21.3553 379.649 17.8921 382.198C14.4288 384.774 9.57496 384.038 7.00375 380.569C4.43253 377.125 5.16717 372.237 8.63043 369.661ZM106.94 291.939L126.696 284.579L133.361 302.505L113.604 309.891L106.94 291.939Z" fill="#EAC0FF"/>
<path d="M15.7422 362.96L93.246 307.212C93.246 307.212 99.7789 302.822 102.062 295.121L109.172 313.52C109.172 313.52 104.502 316.464 98.4409 320.827C92.3801 325.164 26.6567 376.575 26.6567 376.575C26.6567 376.575 27.4963 373.185 24.0855 368.349C20.0975 362.671 15.7422 362.96 15.7422 362.96Z" fill="url(#paint7_linear_1147_4283)"/>
</g>
<defs>
<linearGradient id="paint0_linear_1147_4283" x1="227.089" y1="92" x2="436.679" y2="276.565" gradientUnits="userSpaceOnUse">
<stop stop-color="#480FEB"/>
<stop offset="1" stop-color="#B82FFF"/>
</linearGradient>
<linearGradient id="paint1_linear_1147_4283" x1="351.713" y1="391.82" x2="351.849" y2="197.959" gradientUnits="userSpaceOnUse">
<stop stop-color="white"/>
<stop offset="0.5337" stop-color="white" stop-opacity="0.7"/>
<stop offset="1" stop-color="white"/>
</linearGradient>
<linearGradient id="paint2_linear_1147_4283" x1="210.831" y1="391.727" x2="210.967" y2="197.871" gradientUnits="userSpaceOnUse">
<stop stop-color="white"/>
<stop offset="0.5337" stop-color="white" stop-opacity="0.7"/>
<stop offset="1" stop-color="white"/>
</linearGradient>
<linearGradient id="paint3_linear_1147_4283" x1="66" y1="354.937" x2="200.143" y2="368.065" gradientUnits="userSpaceOnUse">
<stop stop-color="#480FEB"/>
<stop offset="1" stop-color="#B82FFF"/>
</linearGradient>
<linearGradient id="paint4_linear_1147_4283" x1="327.75" y1="57.1266" x2="463.787" y2="70.4347" gradientUnits="userSpaceOnUse">
<stop stop-color="#480FEB"/>
<stop offset="1" stop-color="#B82FFF"/>
</linearGradient>
<linearGradient id="paint5_linear_1147_4283" x1="250.742" y1="8.84018" x2="338.286" y2="17.4109" gradientUnits="userSpaceOnUse">
<stop stop-color="#480FEB"/>
<stop offset="1" stop-color="#B82FFF"/>
</linearGradient>
<linearGradient id="paint6_linear_1147_4283" x1="135.641" y1="274.207" x2="169.133" y2="277.707" gradientUnits="userSpaceOnUse">
<stop stop-color="#480FEB"/>
<stop offset="1" stop-color="#B82FFF"/>
</linearGradient>
<linearGradient id="paint7_linear_1147_4283" x1="15.7422" y1="303.945" x2="116.067" y2="315.221" gradientUnits="userSpaceOnUse">
<stop stop-color="#480FEB"/>
<stop offset="1" stop-color="#B82FFF"/>
</linearGradient>
<clipPath id="clip0_1147_4283">
<rect width="455" height="480" fill="white"/>
</clipPath>
</defs>
</svg>
