<svg width="60" height="60" viewBox="0 0 60 60" fill="none" xmlns="http://www.w3.org/2000/svg">
<path d="M59.7073 24.3517L35.6486 0.29297C35.5537 0.198048 35.4412 0.12504 35.3193 0.0752347C35.2192 0.0342189 35.1128 0.0201563 35.0065 0.0130079C34.9841 0.0113672 34.964 0 34.9416 0H25.0588C24.7936 0 24.5393 0.105469 24.3518 0.29297L0.29297 24.3517C0.198048 24.4466 0.12504 24.5591 0.0752347 24.681C0.0342189 24.781 0.0201563 24.8874 0.0130079 24.9937C0.0113672 25.0161 0 25.0363 0 25.0587V34.9415C0 35.2067 0.105469 35.461 0.29297 35.6485L24.3517 59.7071C24.4466 59.8021 24.5591 59.8751 24.681 59.9249C24.781 59.9659 24.8874 59.98 24.9937 59.9871C25.016 59.9886 25.0362 60 25.0587 60H34.9415C35.2067 60 35.461 59.8945 35.6485 59.707L59.7071 35.6483C59.8021 35.5534 59.8751 35.4409 59.9249 35.319C59.9659 35.219 59.98 35.1126 59.9871 35.0063C59.9886 34.984 60 34.9638 60 34.9413V25.0585C60.0002 24.7936 59.8948 24.5392 59.7073 24.3517ZM25.4728 2.00005H32.5261L8.73296 25.7931C8.34238 26.1837 8.34238 26.8165 8.73296 27.2072L28.5861 47.0602L26.5002 49.1462L2.41337 25.0595L25.4728 2.00005ZM14.354 30.0001L30.0001 14.354L45.6462 30.0001L30.0001 45.6462L14.354 30.0001ZM2.00005 34.5274V27.4741L25.7931 51.2673C25.9884 51.4626 26.2442 51.5602 26.5001 51.5602C26.7559 51.5602 27.0118 51.4626 27.2071 51.2673L47.0601 31.4141L49.1461 33.5001L25.0592 57.5869L2.00005 34.5274ZM34.5274 58.0002H27.4742L51.2673 34.2072C51.6579 33.8166 51.6579 33.1838 51.2673 32.7931L31.4142 12.94L33.5002 10.8541L57.587 34.9409L34.5274 58.0002ZM58.0002 32.526L34.2072 8.73296C33.8166 8.34238 33.1838 8.34238 32.7931 8.73296L12.94 28.586L10.8541 26.5001L34.9409 2.41325L58.0003 25.4727V32.526H58.0002Z" fill="url(#paint0_linear_1110_373)"/>
<defs>
<linearGradient id="paint0_linear_1110_373" x1="-4.3052e-08" y1="6.5" x2="64.6217" y2="12.8318" gradientUnits="userSpaceOnUse">
<stop stop-color="#480FEB"/>
<stop offset="1" stop-color="#B82FFF"/>
</linearGradient>
</defs>
</svg>
