<svg width="235" height="235" viewBox="0 0 235 235" fill="none" xmlns="http://www.w3.org/2000/svg">
<g clip-path="url(#clip0_1110_412)">
<path d="M49.2159 11.4767C44.0244 8.27315 36.8211 8.46652 31.0018 7.23696C29.5918 6.78857 28.5924 8.95485 30.1947 9.77491C35.7449 11.8505 42.6025 13.7207 48.4088 14.0146C49.7166 13.8095 50.2546 12.1175 49.2159 11.4767Z" fill="url(#paint0_linear_1110_412)"/>
<path d="M83.7814 22.6712C78.9697 18.9212 71.7882 18.3288 66.1375 16.4726C64.7848 15.8733 63.5554 17.9178 65.0588 18.9075C70.3499 21.5753 76.9629 24.1815 82.7026 25.1061C84.025 25.0447 84.7441 23.4214 83.7814 22.6712Z" fill="url(#paint1_linear_1110_412)"/>
<path d="M113.014 44.3595C110.904 38.8937 105.312 35.4451 100.322 33.5581C99.2396 33.0787 98.5205 34.702 99.6027 35.1814C102.188 36.6506 104.383 38.2704 106.459 40.1608C108.264 41.9314 109.678 43.8526 111.483 45.6232C112.055 46.5238 113.466 45.5307 113.014 44.3595Z" fill="url(#paint2_linear_1110_412)"/>
<path d="M132.072 78.0479C132.069 75.1335 130.863 72.0103 129.418 69.4281C128.363 66.6952 126.648 63.9932 125.083 61.6815C124.511 60.7808 123.219 61.5034 123.791 62.4041C125.237 64.9863 126.291 67.7192 127.076 70.3322C128.13 73.0651 128.404 76.0993 129.459 78.8322C129.791 80.2738 132.014 79.6402 132.072 78.0479Z" fill="url(#paint3_linear_1110_412)"/>
<path d="M130.051 97.2192C129.839 95.5069 127.465 95.7499 127.678 97.4624C127.619 99.0549 127.712 101.038 127.654 102.63C127.356 104.764 126.246 106.538 126.338 108.52C126.249 109.452 127.602 110.051 128.232 109.359C130.904 106.983 130.356 100.914 130.051 97.2192Z" fill="url(#paint4_linear_1110_412)"/>
<path d="M122.371 134.274C123.569 131.568 124.768 128.863 125.306 126.188C125.634 124.716 124.011 123.996 123.412 125.349C122.063 127.664 121.104 129.829 120.025 132.264C118.946 134.698 117.326 136.894 117.059 139.688C116.85 140.89 118.744 141.729 119.494 140.767C120.994 138.843 121.683 136.558 122.371 134.274Z" fill="url(#paint5_linear_1110_412)"/>
<path d="M105.327 155.206C103.046 157.432 100.766 159.657 97.9439 161.643C95.5122 163.48 92.5396 165.075 91.0705 167.661C90.2006 168.894 91.9746 170.003 93.0261 169.822C96.0294 168.887 98.5506 166.12 100.831 163.893C103.383 161.787 105.392 159.442 107.132 156.976C108.122 155.473 106.197 153.972 105.327 155.206Z" fill="url(#paint6_linear_1110_412)"/>
<path d="M83.9278 170.644C81.4657 171.818 78.8833 173.264 76.5408 174.168C75.3696 174.62 73.9278 174.952 72.6059 175.014C71.284 175.075 70.7429 174.836 69.4518 175.558C68.5511 176.13 68.6128 177.452 69.3046 178.082C71.4996 179.702 74.7429 178.226 77.0854 177.322C79.9381 175.996 82.3694 174.161 84.9208 172.055C85.5515 171.363 84.8285 170.072 83.9278 170.644Z" fill="url(#paint7_linear_1110_412)"/>
<path d="M60.1003 168.178C58.2681 168.661 56.2853 168.753 54.662 168.034C53.3092 167.435 51.8058 166.445 50.2442 167.048C49.4633 167.349 49.1038 168.161 49.4051 168.942C50.9122 172.845 58.001 171.455 60.5834 170.01C61.4843 169.439 61.1523 167.996 60.1003 168.178Z" fill="url(#paint8_linear_1110_412)"/>
<path d="M45.3028 154.825C43.2581 153.596 41.0631 151.976 39.2583 150.205C37.3026 148.044 37.0595 145.671 36.6658 142.907C36.3336 141.465 34.5905 141.017 33.6008 142.52C30.0939 149.705 38.6933 155.133 44.4638 156.719C45.3951 156.808 46.1145 155.184 45.3028 154.825Z" fill="url(#paint9_linear_1110_412)"/>
<path d="M39.6789 130.976C39.3124 125.959 41.6515 122.14 42.7576 117.452C42.9663 116.25 41.343 115.531 40.5932 116.493C37.7439 120.733 36.9392 126.202 37.9666 131.188C38.1481 132.24 39.4704 132.178 39.6789 130.976Z" fill="url(#paint10_linear_1110_412)"/>
<path d="M61.3821 84.9212C54.4746 87.363 50.3957 93.6477 47.9096 99.9897C47.4301 101.072 49.324 101.911 49.8034 100.829C52.5911 95.2671 56.7315 90.3047 62.2861 87.2641C63.8483 86.6611 62.9442 84.3186 61.3821 84.9212Z" fill="url(#paint11_linear_1110_412)"/>
<path d="M85.7002 72.394C79.7516 72.6714 73.9262 75.5927 68.9126 78.8735C67.6215 79.5961 69.0359 81.5173 70.0564 80.6749C75.1009 78.055 80.5975 76.6064 85.9434 74.7673C87.505 74.1646 87.0217 72.3322 85.7002 72.394Z" fill="url(#paint12_linear_1110_412)"/>
<path d="M108.619 63.7739C104.832 62.0958 99.0644 63.4246 95.4309 65.0513C93.8692 65.6541 94.7733 67.9965 96.335 67.3938C98.287 66.6404 100.39 66.2773 102.373 66.1849C104.356 66.0924 106.489 66.3903 108.592 66.0273C109.643 65.8458 109.431 64.1335 108.619 63.7739Z" fill="url(#paint13_linear_1110_412)"/>
<path d="M149.904 68.4726C147.739 67.5137 145.216 67.3664 142.931 66.6781C139.986 66.0205 137.161 65.0925 134.246 65.0959C132.654 65.0377 132.356 67.1712 133.829 67.5C136.503 68.0377 139.329 68.9657 141.883 69.7739C144.168 70.4623 146.873 71.6609 149.366 71.1472C150.959 71.2054 151.256 69.0717 149.904 68.4726Z" fill="url(#paint14_linear_1110_412)"/>
<path d="M175.18 76.4349C172.022 74.065 167.334 72.9589 163.426 71.5513C162.074 70.952 161.235 72.8459 162.587 73.4452C166.255 75.3938 169.954 78.0034 174.101 78.8698C175.573 79.1984 176.412 77.3045 175.18 76.4349Z" fill="url(#paint15_linear_1110_412)"/>
<path d="M199.741 88.9347C198.087 87.5546 196.073 86.9861 194.179 86.1469C192.285 85.308 190.121 84.349 188.107 83.7805C186.754 83.1812 185.795 85.3455 187.148 85.9448C189.042 86.7839 191.207 87.743 192.98 88.8524C194.874 89.6914 196.648 90.801 198.782 91.0991C199.864 91.5786 200.583 89.9553 199.741 88.9347Z" fill="url(#paint16_linear_1110_412)"/>
<path d="M221.837 99.6948C219.878 94.6195 217.799 89.8147 215.331 85.1608C213.584 81.7978 211.323 75.9414 207.686 74.6538C206.333 74.0545 204.532 75.1983 204.744 76.9106C205.169 80.3353 208.238 83.6366 209.953 86.3387C211.971 89.8216 213.748 93.8455 215.525 97.8695C209.155 97.6366 202.426 98.2154 196.087 98.6435C194.104 98.736 193.868 102.191 196.002 102.49C203.724 103.322 211.594 101.63 219.228 103.394C220.971 103.842 222.32 101.527 221.837 99.6948Z" fill="url(#paint17_linear_1110_412)"/>
</g>
<defs>
<linearGradient id="paint0_linear_1110_412" x1="30.2746" y1="5.48777" x2="45.9356" y2="19.0672" gradientUnits="userSpaceOnUse">
<stop stop-color="#480FEB"/>
<stop offset="1" stop-color="#B82FFF"/>
</linearGradient>
<linearGradient id="paint1_linear_1110_412" x1="65.6052" y1="14.6546" x2="79.6937" y2="29.8592" gradientUnits="userSpaceOnUse">
<stop stop-color="#480FEB"/>
<stop offset="1" stop-color="#B82FFF"/>
</linearGradient>
<linearGradient id="paint2_linear_1110_412" x1="99.2373" y1="33.8144" x2="113.548" y2="45.0134" gradientUnits="userSpaceOnUse">
<stop stop-color="#480FEB"/>
<stop offset="1" stop-color="#B82FFF"/>
</linearGradient>
<linearGradient id="paint3_linear_1110_412" x1="123.364" y1="62.4616" x2="136.928" y2="70.1208" gradientUnits="userSpaceOnUse">
<stop stop-color="#480FEB"/>
<stop offset="1" stop-color="#B82FFF"/>
</linearGradient>
<linearGradient id="paint4_linear_1110_412" x1="127.656" y1="96.9764" x2="133.438" y2="99.85" gradientUnits="userSpaceOnUse">
<stop stop-color="#480FEB"/>
<stop offset="1" stop-color="#B82FFF"/>
</linearGradient>
<linearGradient id="paint5_linear_1110_412" x1="122.638" y1="125.888" x2="126.081" y2="127.493" gradientUnits="userSpaceOnUse">
<stop stop-color="#480FEB"/>
<stop offset="1" stop-color="#B82FFF"/>
</linearGradient>
<linearGradient id="paint6_linear_1110_412" x1="97.4815" y1="153.119" x2="107.564" y2="158.233" gradientUnits="userSpaceOnUse">
<stop stop-color="#480FEB"/>
<stop offset="1" stop-color="#B82FFF"/>
</linearGradient>
<linearGradient id="paint7_linear_1110_412" x1="72.9999" y1="166.961" x2="85.2642" y2="173.878" gradientUnits="userSpaceOnUse">
<stop stop-color="#480FEB"/>
<stop offset="1" stop-color="#B82FFF"/>
</linearGradient>
<linearGradient id="paint8_linear_1110_412" x1="50.8288" y1="164.633" x2="60.8496" y2="171.388" gradientUnits="userSpaceOnUse">
<stop stop-color="#480FEB"/>
<stop offset="1" stop-color="#B82FFF"/>
</linearGradient>
<linearGradient id="paint9_linear_1110_412" x1="33.7855" y1="142.087" x2="48.5853" y2="151.57" gradientUnits="userSpaceOnUse">
<stop stop-color="#480FEB"/>
<stop offset="1" stop-color="#B82FFF"/>
</linearGradient>
<linearGradient id="paint10_linear_1110_412" x1="40.0248" y1="117.145" x2="45.2435" y2="119.666" gradientUnits="userSpaceOnUse">
<stop stop-color="#480FEB"/>
<stop offset="1" stop-color="#B82FFF"/>
</linearGradient>
<linearGradient id="paint11_linear_1110_412" x1="54.9202" y1="84.0619" x2="63.1308" y2="88.1018" gradientUnits="userSpaceOnUse">
<stop stop-color="#480FEB"/>
<stop offset="1" stop-color="#B82FFF"/>
</linearGradient>
<linearGradient id="paint12_linear_1110_412" x1="73.2841" y1="68.4679" x2="87.0469" y2="76.2618" gradientUnits="userSpaceOnUse">
<stop stop-color="#480FEB"/>
<stop offset="1" stop-color="#B82FFF"/>
</linearGradient>
<linearGradient id="paint13_linear_1110_412" x1="97.3302" y1="59.8005" x2="109.309" y2="67.3923" gradientUnits="userSpaceOnUse">
<stop stop-color="#480FEB"/>
<stop offset="1" stop-color="#B82FFF"/>
</linearGradient>
<linearGradient id="paint14_linear_1110_412" x1="134.533" y1="62.3324" x2="148.58" y2="74.6368" gradientUnits="userSpaceOnUse">
<stop stop-color="#480FEB"/>
<stop offset="1" stop-color="#B82FFF"/>
</linearGradient>
<linearGradient id="paint15_linear_1110_412" x1="162.537" y1="70.8198" x2="172.73" y2="81.75" gradientUnits="userSpaceOnUse">
<stop stop-color="#480FEB"/>
<stop offset="1" stop-color="#B82FFF"/>
</linearGradient>
<linearGradient id="paint16_linear_1110_412" x1="187.106" y1="83.3005" x2="196.67" y2="94.2252" gradientUnits="userSpaceOnUse">
<stop stop-color="#480FEB"/>
<stop offset="1" stop-color="#B82FFF"/>
</linearGradient>
<linearGradient id="paint17_linear_1110_412" x1="204.461" y1="76.7959" x2="229.056" y2="90.2515" gradientUnits="userSpaceOnUse">
<stop stop-color="#480FEB"/>
<stop offset="1" stop-color="#B82FFF"/>
</linearGradient>
<clipPath id="clip0_1110_412">
<rect width="178" height="178" fill="white" transform="translate(72.1016) rotate(23.895)"/>
</clipPath>
</defs>
</svg>
